<svg width="84" height="46" viewBox="0 0 84 46" fill="none" xmlns="http://www.w3.org/2000/svg">
<g filter="url(#filter0_d_205_3)">
<path d="M15.2812 36.7422C14.5 37.2266 13.6172 37.4688 12.6328 37.4688C11.6484 37.4688 10.8047 37.2188 10.1016 36.7188C9.30469 37.2188 8.57031 37.4688 7.89844 37.4688C7.22656 37.4688 6.67188 37.4062 6.23438 37.2812C5.79688 37.1719 5.42188 37.0156 5.10938 36.8125C4.42188 36.4062 4.07812 35.8984 4.07812 35.2891C4.07812 34.9766 4.16406 34.7031 4.33594 34.4688C4.67969 34.7344 5.11719 34.8672 5.64844 34.8672C7.03906 34.8672 8 34.2734 8.53125 33.0859V21.625C8.53125 20.4062 7.92188 19.4844 6.70312 18.8594L5.67188 18.3203C7.0625 17.6797 7.9375 16.9844 8.29688 16.2344C8.45312 15.8906 8.53125 15.4688 8.53125 14.9688V5.07812C8 3.875 7.03906 3.27344 5.64844 3.27344C5.11719 3.27344 4.67969 3.40625 4.33594 3.67188C4.16406 3.4375 4.07812 3.17188 4.07812 2.875C4.07812 2.5625 4.16406 2.27344 4.33594 2.00781C4.52344 1.74219 4.78125 1.51562 5.10938 1.32812C5.8125 0.890625 6.61719 0.671875 7.52344 0.671875C8.44531 0.671875 9.30469 0.921875 10.1016 1.42188C10.8047 0.921875 11.6484 0.671875 12.6328 0.671875C13.6328 0.671875 14.5156 0.921875 15.2812 1.42188C16.0156 0.921875 16.8359 0.671875 17.7422 0.671875C19.0703 0.671875 20.0156 1.11719 20.5781 2.00781C20.7656 2.28906 20.8594 2.58594 20.8594 2.89844C20.8594 3.21094 20.7656 3.46875 20.5781 3.67188C20.2344 3.40625 19.8047 3.27344 19.2891 3.27344C18.0859 3.27344 17.2812 3.85938 16.875 5.03125V17.4062H27.9609V5.03125C27.5547 3.85938 26.75 3.27344 25.5469 3.27344C25.0312 3.27344 24.6016 3.40625 24.2578 3.67188C24.0703 3.46875 23.9766 3.21094 23.9766 2.89844C23.9766 2.58594 24.0625 2.28906 24.2344 2.00781C24.4219 1.72656 24.6562 1.48438 24.9375 1.28125C25.5312 0.875 26.25 0.671875 27.0938 0.671875C28 0.671875 28.8203 0.921875 29.5547 1.42188C30.3516 0.921875 31.2344 0.671875 32.2031 0.671875C33.1875 0.671875 34.0312 0.921875 34.7344 1.42188C35.5 0.921875 36.2266 0.671875 36.9141 0.671875C37.6016 0.671875 38.1641 0.734375 38.6016 0.859375C39.0391 0.96875 39.4219 1.125 39.75 1.32812C40.4219 1.73437 40.7578 2.24219 40.7578 2.85156C40.7578 3.16406 40.6719 3.4375 40.5 3.67188C40.1562 3.40625 39.7188 3.27344 39.1875 3.27344C37.7969 3.27344 36.8359 3.875 36.3047 5.07812V14.9688C36.3047 16.1875 36.9062 17.1328 38.1094 17.8047C38.4531 17.9922 38.8047 18.1641 39.1641 18.3203C38.2266 18.7734 37.5938 19.1406 37.2656 19.4219C36.625 20.0156 36.3047 20.75 36.3047 21.625V33.0859C36.8359 34.2734 37.7969 34.8672 39.1875 34.8672C39.7188 34.8672 40.1562 34.7344 40.5 34.4688C40.6719 34.7031 40.7578 34.9766 40.7578 35.2891C40.7578 35.5859 40.6641 35.8672 40.4766 36.1328C40.3047 36.3984 40.0625 36.625 39.75 36.8125C39.0312 37.25 38.2031 37.4688 37.2656 37.4688C36.3438 37.4688 35.5 37.2188 34.7344 36.7188C34.0312 37.2188 33.1875 37.4688 32.2031 37.4688C31.2344 37.4688 30.3516 37.2188 29.5547 36.7188C28.8203 37.2188 28 37.4688 27.0938 37.4688C25.7656 37.4688 24.8125 37.0234 24.2344 36.1328C24.0625 35.8516 23.9766 35.5547 23.9766 35.2422C23.9766 34.9297 24.0703 34.6719 24.2578 34.4688C24.6016 34.7344 25.0312 34.8672 25.5469 34.8672C26.75 34.8672 27.5547 34.2812 27.9609 33.1094V20.7578H16.875V33.1094C17.2812 34.2812 18.0859 34.8672 19.2891 34.8672C19.8047 34.8672 20.2344 34.7344 20.5781 34.4688C20.7656 34.6719 20.8594 34.9297 20.8594 35.2422C20.8594 35.5547 20.7656 35.8516 20.5781 36.1328C20.4062 36.4141 20.1719 36.6562 19.875 36.8594C19.3125 37.2656 18.6016 37.4688 17.7422 37.4688C16.8516 37.4688 16.0312 37.2266 15.2812 36.7422ZM29.9062 13.3047C29.8906 14.9766 29.8828 17.75 29.8828 21.625C29.8828 25.5 29.9375 27.7812 30.0469 28.4688C30.25 29.7812 30.6562 30.5547 31.2656 30.7891V27.7422C31.2656 23.5859 31.2969 21.2422 31.3594 20.7109C31.4219 20.1641 31.4844 19.7812 31.5469 19.5625C31.6875 19.0156 32.1641 18.6016 32.9766 18.3203C32.2578 18.1016 31.7812 17.6562 31.5469 16.9844C31.3594 16.2344 31.2656 13.1406 31.2656 7.70312C30.6562 7.98438 30.2812 8.54688 30.1406 9.39062C30 10.3125 29.9219 11.6172 29.9062 13.3047ZM10.7812 30.7891C11.5312 30.4922 11.9531 29.4688 12.0469 27.7188C12.125 25.9688 12.1641 23.5469 12.1641 20.4531C12.1641 17.3594 12.1562 15.3047 12.1406 14.2891C12.1406 13.2578 12.1328 12.4297 12.1172 11.8047C12.0703 9.97656 11.8984 8.86719 11.6016 8.47656C11.3203 8.08594 11.0469 7.82812 10.7812 7.70312C10.7812 13.1406 10.6875 16.2344 10.5 16.9844C10.2812 17.6094 9.75 18.0547 8.90625 18.3203C9.84375 18.6484 10.375 19.0469 10.5 19.5156C10.6875 20.2656 10.7812 23.0078 10.7812 27.7422V30.7891ZM55.5703 36.7422C54.7891 37.2266 53.9062 37.4688 52.9219 37.4688C51.9375 37.4688 51.0938 37.2188 50.3906 36.7188C49.5938 37.2188 48.8594 37.4688 48.1875 37.4688C47.5156 37.4688 46.9609 37.4062 46.5234 37.2812C46.0859 37.1719 45.7031 37.0156 45.375 36.8125C44.7031 36.4062 44.3672 35.8984 44.3672 35.2891C44.3672 34.9766 44.4531 34.7031 44.625 34.4688C44.9688 34.7344 45.4062 34.8672 45.9375 34.8672C47.3281 34.8672 48.2891 34.2734 48.8203 33.0859V21.625C48.8203 20.4062 48.2109 19.4844 46.9922 18.8594L45.9609 18.3203C47.3516 17.6797 48.2188 16.9844 48.5625 16.2344C48.7344 15.8906 48.8203 15.4688 48.8203 14.9688V5.07812C48.2891 3.875 47.3281 3.27344 45.9375 3.27344C45.4062 3.27344 44.9688 3.40625 44.625 3.67188C44.4531 3.4375 44.3672 3.17188 44.3672 2.875C44.3672 2.5625 44.4531 2.27344 44.625 2.00781C44.8125 1.74219 45.0625 1.51562 45.375 1.32812C46.0938 0.890625 46.9062 0.671875 47.8125 0.671875C48.7344 0.671875 49.5938 0.921875 50.3906 1.42188C51.0938 0.921875 51.9375 0.671875 52.9219 0.671875C53.9219 0.671875 54.8047 0.921875 55.5703 1.42188C56.3047 0.921875 57.125 0.671875 58.0312 0.671875C59.3594 0.671875 60.3125 1.11719 60.8906 2.00781C61.0625 2.28906 61.1484 2.58594 61.1484 2.89844C61.1484 3.21094 61.0547 3.46875 60.8672 3.67188C60.5234 3.40625 60.0938 3.27344 59.5781 3.27344C58.375 3.27344 57.5703 3.85938 57.1641 5.03125V17.0781L67.9453 4.30469C67.9453 3.60156 67.5547 3.25 66.7734 3.25C65.9922 3.25 65.3438 3.39844 64.8281 3.69531C64.6562 3.41406 64.5703 3.05469 64.5703 2.61719C64.5703 2.16406 64.8047 1.72656 65.2734 1.30469C65.7422 0.882812 66.3906 0.671875 67.2188 0.671875C68.0625 0.671875 68.7578 0.875 69.3047 1.28125C69.8516 0.875 70.4609 0.671875 71.1328 0.671875C71.8047 0.671875 72.4062 0.882812 72.9375 1.30469C73.4688 0.882812 74.0078 0.671875 74.5547 0.671875C75.1016 0.671875 75.5312 0.726562 75.8438 0.835938C76.1719 0.929688 76.4531 1.0625 76.6875 1.23438C77.2344 1.64062 77.5078 2.09375 77.5078 2.59375C77.5078 3.09375 77.4297 3.46094 77.2734 3.69531C76.9453 3.58594 76.5703 3.53125 76.1484 3.53125C75.2891 3.53125 74.6562 3.61719 74.25 3.78906C73.8594 3.96094 73.4766 4.15625 73.1016 4.375C72.7422 4.59375 72.375 4.84375 72 5.125L70.9219 5.92188C70.5625 6.20312 70.2734 6.46094 70.0547 6.69531L64.6875 13L74.5547 30.9531C75.7734 33.1406 76.75 34.3906 77.4844 34.7031C77.75 34.8125 78.0938 34.8672 78.5156 34.8672C78.9375 34.8672 79.3203 34.7344 79.6641 34.4688C79.8359 34.7031 79.9219 34.9766 79.9219 35.2891C79.9219 35.5859 79.8359 35.8672 79.6641 36.1328C79.4922 36.3984 79.2656 36.625 78.9844 36.8125C78.3438 37.25 77.5312 37.4688 76.5469 37.4688C75.5625 37.4688 74.6719 37.2188 73.875 36.7188C73.0781 37.2188 72.1719 37.4688 71.1562 37.4688C70.1406 37.4688 69.2344 37.2188 68.4375 36.7188C67.6406 37.2188 66.7656 37.4688 65.8125 37.4688C64.875 37.4688 64.1406 37.2578 63.6094 36.8359C63.0938 36.3984 62.8359 35.8828 62.8359 35.2891C62.8359 34.9766 62.9219 34.7031 63.0938 34.4688C63.4375 34.7344 63.875 34.8672 64.4062 34.8672C65.3906 34.8672 66.1172 34.4844 66.5859 33.7188L59.3438 19.2344L57.1641 21.7891V33.1094C57.5703 34.2812 58.375 34.8672 59.5781 34.8672C60.0938 34.8672 60.5234 34.7344 60.8672 34.4688C61.0547 34.6719 61.1484 34.9297 61.1484 35.2422C61.1484 35.5547 61.0547 35.8516 60.8672 36.1328C60.6953 36.4141 60.4688 36.6562 60.1875 36.8594C59.5938 37.2656 58.875 37.4688 58.0312 37.4688C57.1406 37.4688 56.3203 37.2266 55.5703 36.7422ZM51.0234 30.7891C51.8047 30.4922 52.2344 29.4688 52.3125 27.7188C52.4062 25.9688 52.4531 23.5469 52.4531 20.4531C52.4531 17.3594 52.4453 15.3047 52.4297 14.2891C52.4297 13.2578 52.4219 12.4297 52.4062 11.8047C52.3594 9.96094 52.1797 8.85156 51.8672 8.47656C51.5703 8.08594 51.2891 7.82812 51.0234 7.70312C51.0234 13.1406 50.9297 16.2344 50.7422 16.9844C50.5234 17.6094 49.9922 18.0547 49.1484 18.3203C50.0859 18.6484 50.6172 19.0469 50.7422 19.5156C50.9297 20.2656 51.0234 23.0078 51.0234 27.7422V30.7891ZM67.5469 30.7891C67.7344 30.5391 67.8281 30.1719 67.8281 29.6875C67.8281 28.625 67.4609 27.4141 66.7266 26.0547L62.1562 16.6797L61.1016 17.7812L67.5469 30.7891Z" fill="#048654"/>
</g>
<defs>
<filter id="filter0_d_205_3" x="0.078125" y="0.671875" width="83.8438" height="44.7969" filterUnits="userSpaceOnUse" color-interpolation-filters="sRGB">
<feFlood flood-opacity="0" result="BackgroundImageFix"/>
<feColorMatrix in="SourceAlpha" type="matrix" values="0 0 0 0 0 0 0 0 0 0 0 0 0 0 0 0 0 0 127 0" result="hardAlpha"/>
<feOffset dy="4"/>
<feGaussianBlur stdDeviation="2"/>
<feComposite in2="hardAlpha" operator="out"/>
<feColorMatrix type="matrix" values="0 0 0 0 0 0 0 0 0 0 0 0 0 0 0 0 0 0 0.25 0"/>
<feBlend mode="normal" in2="BackgroundImageFix" result="effect1_dropShadow_205_3"/>
<feBlend mode="normal" in="SourceGraphic" in2="effect1_dropShadow_205_3" result="shape"/>
</filter>
</defs>
</svg>
