<svg width="182" height="46" viewBox="0 0 182 46" fill="none" xmlns="http://www.w3.org/2000/svg">
<path d="M178.66 1H3.3404C2.04783 1 1 1.89227 1 2.99294V42.7521C1 43.8528 2.04783 44.745 3.3404 44.745H178.66C179.952 44.745 181 43.8528 181 42.7521V2.99294C181 1.89227 179.952 1 178.66 1Z" stroke="url(#paint0_linear_2710_15080)" stroke-width="0.717131"/>
<path d="M10.1747 16.3865C10.1747 14.1188 10.7475 12.4823 11.8931 11.477C13.0386 10.4717 14.8972 9.9691 17.4688 9.9691C19.269 9.9691 20.7184 10.4367 21.8172 11.3718C22.916 12.3069 23.7109 13.733 24.2018 15.6501L20.9405 18.1048H19.2222L23.0095 15.2643C22.5186 13.698 21.8055 12.5992 20.8704 11.968C19.9586 11.3367 18.8248 11.0211 17.4688 11.0211C16.5337 11.0211 15.7388 11.0796 15.0842 11.1965C14.453 11.3134 13.8101 11.5471 13.1555 11.8978C12.5243 12.2251 12.045 12.7628 11.7177 13.5109C11.3904 14.2591 11.2268 15.2176 11.2268 16.3865C11.2268 17.4151 11.6943 18.3269 12.6295 19.1218C13.588 19.9166 14.7452 20.5946 16.1012 21.1557C17.4571 21.7168 18.8131 22.2896 20.169 22.874C21.5484 23.4585 22.7056 24.2066 23.6407 25.1184C24.5993 26.0301 25.0785 27.0822 25.0785 28.2745C25.0785 30.6123 24.4941 32.354 23.3251 33.4995C22.1796 34.6451 20.2041 35.2179 17.3987 35.2179C15.1076 35.2179 13.3075 34.762 11.9983 33.8502C10.6891 32.9151 9.78899 31.4773 9.29804 29.5369L10.2799 29.1161C10.7475 31.0097 11.5424 32.3306 12.6645 33.0787C13.8101 33.8035 15.3881 34.1658 17.3987 34.1658C19.643 34.1658 21.3029 33.7333 22.3783 32.8683C23.4771 32.0033 24.0265 30.472 24.0265 28.2745C24.0265 27.2458 23.5472 26.334 22.5887 25.5392C21.6536 24.7443 20.4963 24.0663 19.117 23.5052C17.7611 22.9442 16.4051 22.3714 15.0492 21.7869C13.6932 21.2025 12.536 20.4543 11.5774 19.5426C10.6423 18.6308 10.1747 17.5788 10.1747 16.3865ZM33.5841 33.8152H47.4008V12.8096L39.5105 29.7122L31.6203 12.7745V34.8672L30.5683 34.8321V10.2847H31.6203L39.5105 27.2224L47.4008 10.3198L48.4528 10.2847V34.8672L33.5841 34.8321V33.8152ZM56.0277 33.8152H68.9326L61.4983 13.3707L53.6782 34.8672H52.556L61.4983 10.2847L70.4405 34.8672H56.0277V33.8152ZM77.2752 33.8152H86.9539L82.7107 22.1727L84.6745 21.0505C86.2876 20.1621 87.0942 18.7477 87.0942 16.8073C87.0942 13.1836 84.3355 11.3718 78.8182 11.3718H75.5919V34.8672H74.5399V10.3198H78.8182C81.9041 10.3198 84.2303 10.8925 85.7967 12.0381C87.363 13.1603 88.1462 14.75 88.1462 16.8073C88.1462 19.1452 87.1643 20.8635 85.2005 21.9623L84.0082 22.6285L88.4618 34.8672H77.2752V33.8152ZM108.408 10.3198V11.3718H100.168V34.8672H99.1155V11.3718H90.8746V10.3198H108.408ZM113.468 34.8672H112.416V10.3198H113.468V34.8672ZM123.762 34.8672H120.395V10.3198H123.762C127.128 10.3198 129.98 11.5588 132.318 14.037C134.656 16.5151 135.825 19.3672 135.825 22.5935C135.825 25.8197 134.656 28.6719 132.318 31.15C129.98 33.6281 127.128 34.8672 123.762 34.8672ZM123.762 33.8152C126.824 33.8152 129.419 32.693 131.547 30.4487C133.697 28.1809 134.773 25.5625 134.773 22.5935C134.773 19.6244 133.697 17.0177 131.547 14.7734C129.419 12.5057 126.824 11.3718 123.762 11.3718H121.447V33.8152H123.762ZM155.841 33.8152V34.8672H141.182V10.3198H142.234V33.8152H155.841ZM161.039 10.3198H175.241L166.474 24.3469V34.8672H165.422V24.3469L156.655 10.3198H157.882L165.948 23.1896L173.347 11.3718H161.039V10.3198Z" fill="black"/>
<defs>
<linearGradient id="paint0_linear_2710_15080" x1="1" y1="1" x2="1" y2="34.7803" gradientUnits="userSpaceOnUse">
<stop stop-color="black"/>
</linearGradient>
</defs>
</svg>
