<svg width="57" height="59" viewBox="0 0 57 59" fill="none" xmlns="http://www.w3.org/2000/svg">
<ellipse cx="29.5518" cy="14.6835" rx="13.9072" ry="14.6835" fill="url(#paint0_linear_2975_41861)" fill-opacity="0.05"/>
<path d="M43.3541 14.6835C43.3541 22.7404 37.1693 29.262 29.5518 29.262C21.9343 29.262 15.7495 22.7404 15.7495 14.6835C15.7495 6.62653 21.9343 0.104938 29.5518 0.104938C37.1693 0.104938 43.3541 6.62653 43.3541 14.6835Z" stroke="white" stroke-opacity="0.04" stroke-width="0.209877"/>
<ellipse cx="39.2861" cy="20.1913" rx="13.9072" ry="14.6835" fill="url(#paint1_linear_2975_41861)" fill-opacity="0.05"/>
<path d="M53.0884 20.1913C53.0884 28.2482 46.9036 34.7698 39.2861 34.7698C31.6686 34.7698 25.4838 28.2482 25.4838 20.1913C25.4838 12.1343 31.6686 5.61275 39.2861 5.61275C46.9036 5.61275 53.0884 12.1343 53.0884 20.1913Z" stroke="white" stroke-opacity="0.04" stroke-width="0.209877"/>
<ellipse cx="42.419" cy="28.996" rx="13.9072" ry="14.6835" fill="url(#paint2_linear_2975_41861)" fill-opacity="0.05"/>
<path d="M56.2212 28.996C56.2212 37.0529 50.0365 43.5745 42.419 43.5745C34.8015 43.5745 28.6167 37.0529 28.6167 28.996C28.6167 20.939 34.8015 14.4174 42.419 14.4174C50.0365 14.4174 56.2212 20.939 56.2212 28.996Z" stroke="white" stroke-opacity="0.04" stroke-width="0.209877"/>
<ellipse cx="40.1611" cy="37.0741" rx="13.9072" ry="14.6835" fill="url(#paint3_linear_2975_41861)" fill-opacity="0.05"/>
<path d="M53.9634 37.0741C53.9634 45.1311 47.7786 51.6526 40.1611 51.6526C32.5436 51.6526 26.3588 45.1311 26.3588 37.0741C26.3588 29.0172 32.5436 22.4956 40.1611 22.4956C47.7786 22.4956 53.9634 29.0172 53.9634 37.0741Z" stroke="white" stroke-opacity="0.04" stroke-width="0.209877"/>
<ellipse cx="31.4619" cy="43.3202" rx="13.9072" ry="14.6835" fill="url(#paint4_linear_2975_41861)" fill-opacity="0.05"/>
<path d="M45.2642 43.3202C45.2642 51.3771 39.0794 57.8987 31.4619 57.8987C23.8444 57.8987 17.6596 51.3771 17.6596 43.3202C17.6596 35.2632 23.8444 28.7417 31.4619 28.7417C39.0794 28.7417 45.2642 35.2632 45.2642 43.3202Z" stroke="white" stroke-opacity="0.04" stroke-width="0.209877"/>
<ellipse cx="37.5518" cy="41.1132" rx="13.9072" ry="14.6835" fill="url(#paint5_linear_2975_41861)" fill-opacity="0.05"/>
<path d="M51.3541 41.1132C51.3541 49.1701 45.1693 55.6917 37.5518 55.6917C29.9343 55.6917 23.7495 49.1701 23.7495 41.1132C23.7495 33.0562 29.9343 26.5346 37.5518 26.5346C45.1693 26.5346 51.3541 33.0562 51.3541 41.1132Z" stroke="white" stroke-opacity="0.04" stroke-width="0.209877"/>
<ellipse cx="21.9072" cy="42.0272" rx="13.9072" ry="14.6835" fill="url(#paint6_linear_2975_41861)" fill-opacity="0.05"/>
<path d="M35.7095 42.0272C35.7095 50.0842 29.5247 56.6058 21.9072 56.6058C14.2897 56.6058 8.10494 50.0842 8.10494 42.0272C8.10494 33.9703 14.2897 27.4487 21.9072 27.4487C29.5247 27.4487 35.7095 33.9703 35.7095 42.0272Z" stroke="white" stroke-opacity="0.04" stroke-width="0.209877"/>
<ellipse cx="16.165" cy="36.3397" rx="13.9072" ry="14.6835" fill="url(#paint7_linear_2975_41861)" fill-opacity="0.05"/>
<path d="M29.9673 36.3397C29.9673 44.3967 23.7825 50.9183 16.165 50.9183C8.54755 50.9183 2.36275 44.3967 2.36275 36.3397C2.36275 28.2828 8.54755 21.7612 16.165 21.7612C23.7825 21.7612 29.9673 28.2828 29.9673 36.3397Z" stroke="white" stroke-opacity="0.04" stroke-width="0.209877"/>
<ellipse cx="13.9072" cy="29.3671" rx="13.9072" ry="14.6835" fill="url(#paint8_linear_2975_41861)" fill-opacity="0.05"/>
<path d="M27.7095 29.3671C27.7095 37.424 21.5247 43.9456 13.9072 43.9456C6.28973 43.9456 0.104938 37.424 0.104938 29.3671C0.104938 21.3101 6.28973 14.7885 13.9072 14.7885C21.5247 14.7885 27.7095 21.3101 27.7095 29.3671Z" stroke="white" stroke-opacity="0.04" stroke-width="0.209877"/>
<ellipse cx="16.6924" cy="21.1093" rx="13.9072" ry="14.6835" fill="url(#paint9_linear_2975_41861)" fill-opacity="0.05"/>
<path d="M30.4947 21.1093C30.4947 29.1662 24.3099 35.6878 16.6924 35.6878C9.07489 35.6878 2.89009 29.1662 2.89009 21.1093C2.89009 13.0523 9.07489 6.53072 16.6924 6.53072C24.3099 6.53072 30.4947 13.0523 30.4947 21.1093Z" stroke="white" stroke-opacity="0.04" stroke-width="0.209877"/>
<ellipse cx="22.9463" cy="16.1561" rx="13.9072" ry="14.6835" fill="url(#paint10_linear_2975_41861)" fill-opacity="0.05"/>
<path d="M36.7486 16.1561C36.7486 24.2131 30.5638 30.7347 22.9463 30.7347C15.3288 30.7347 9.144 24.2131 9.144 16.1561C9.144 8.09919 15.3288 1.57759 22.9463 1.57759C30.5638 1.57759 36.7486 8.09919 36.7486 16.1561Z" stroke="white" stroke-opacity="0.04" stroke-width="0.209877"/>
<defs>
<linearGradient id="paint0_linear_2975_41861" x1="19.3821" y1="7.52528" x2="35.8144" y2="23.6106" gradientUnits="userSpaceOnUse">
<stop/>
<stop offset="1"/>
</linearGradient>
<linearGradient id="paint1_linear_2975_41861" x1="29.1165" y1="13.0331" x2="45.5488" y2="29.1184" gradientUnits="userSpaceOnUse">
<stop/>
<stop offset="1"/>
</linearGradient>
<linearGradient id="paint2_linear_2975_41861" x1="32.2493" y1="21.8378" x2="48.6816" y2="37.9231" gradientUnits="userSpaceOnUse">
<stop/>
<stop offset="1"/>
</linearGradient>
<linearGradient id="paint3_linear_2975_41861" x1="29.9915" y1="29.9159" x2="46.4238" y2="46.0012" gradientUnits="userSpaceOnUse">
<stop/>
<stop offset="1"/>
</linearGradient>
<linearGradient id="paint4_linear_2975_41861" x1="21.2923" y1="36.162" x2="37.7246" y2="52.2473" gradientUnits="userSpaceOnUse">
<stop/>
<stop offset="1"/>
</linearGradient>
<linearGradient id="paint5_linear_2975_41861" x1="27.3821" y1="33.955" x2="43.8144" y2="50.0403" gradientUnits="userSpaceOnUse">
<stop/>
<stop offset="1"/>
</linearGradient>
<linearGradient id="paint6_linear_2975_41861" x1="11.7376" y1="34.869" x2="28.1699" y2="50.9543" gradientUnits="userSpaceOnUse">
<stop/>
<stop offset="1"/>
</linearGradient>
<linearGradient id="paint7_linear_2975_41861" x1="5.99538" y1="29.1815" x2="22.4277" y2="45.2668" gradientUnits="userSpaceOnUse">
<stop/>
<stop offset="1"/>
</linearGradient>
<linearGradient id="paint8_linear_2975_41861" x1="3.73757" y1="22.2089" x2="20.1699" y2="38.2942" gradientUnits="userSpaceOnUse">
<stop/>
<stop offset="1"/>
</linearGradient>
<linearGradient id="paint9_linear_2975_41861" x1="6.52273" y1="13.9511" x2="22.9551" y2="30.0364" gradientUnits="userSpaceOnUse">
<stop/>
<stop offset="1"/>
</linearGradient>
<linearGradient id="paint10_linear_2975_41861" x1="12.7766" y1="8.99794" x2="29.209" y2="25.0833" gradientUnits="userSpaceOnUse">
<stop/>
<stop offset="1"/>
</linearGradient>
</defs>
</svg>
