<svg width="432" height="415" viewBox="0 0 432 415" fill="none" xmlns="http://www.w3.org/2000/svg">
<ellipse cx="226.232" cy="105.041" rx="106.478" ry="105.041" fill="url(#paint0_linear_2983_77565)" fill-opacity="0.05"/>
<path d="M332.282 105.041C332.282 162.811 284.807 209.653 226.232 209.653C167.657 209.653 120.182 162.811 120.182 105.041C120.182 47.27 167.657 0.427817 226.232 0.427817C284.807 0.427817 332.282 47.27 332.282 105.041Z" stroke="white" stroke-opacity="0.04" stroke-width="0.855634"/>
<ellipse cx="324.478" cy="110.041" rx="106.478" ry="105.041" fill="url(#paint1_linear_2983_77565)" fill-opacity="0.23"/>
<path d="M430.528 110.041C430.528 167.811 383.053 214.653 324.478 214.653C265.903 214.653 218.428 167.811 218.428 110.041C218.428 52.27 265.903 5.42782 324.478 5.42782C383.053 5.42782 430.528 52.27 430.528 110.041Z" stroke="white" stroke-opacity="0.06" stroke-width="0.855634"/>
<ellipse cx="324.763" cy="207.474" rx="106.478" ry="105.041" fill="url(#paint2_linear_2983_77565)" fill-opacity="0.05"/>
<path d="M430.813 207.474C430.813 265.245 383.339 312.087 324.763 312.087C266.188 312.087 218.713 265.245 218.713 207.474C218.713 149.704 266.188 102.861 324.763 102.861C383.339 102.861 430.813 149.704 430.813 207.474Z" stroke="white" stroke-opacity="0.04" stroke-width="0.855634"/>
<ellipse cx="307.451" cy="265.201" rx="106.478" ry="105.041" fill="url(#paint3_linear_2983_77565)" fill-opacity="0.05"/>
<path d="M413.501 265.201C413.501 322.971 366.026 369.813 307.451 369.813C248.875 369.813 201.4 322.971 201.4 265.201C201.4 207.43 248.875 160.588 307.451 160.588C366.026 160.588 413.501 207.43 413.501 265.201Z" stroke="white" stroke-opacity="0.04" stroke-width="0.855634"/>
<ellipse cx="240.908" cy="309.837" rx="106.478" ry="105.041" fill="url(#paint4_linear_2983_77565)" fill-opacity="0.05"/>
<path d="M346.958 309.837C346.958 367.608 299.483 414.45 240.908 414.45C182.332 414.45 134.858 367.608 134.858 309.837C134.858 252.067 182.332 205.225 240.908 205.225C299.483 205.225 346.958 252.067 346.958 309.837Z" stroke="white" stroke-opacity="0.04" stroke-width="0.855634"/>
<ellipse cx="287.505" cy="294.119" rx="106.478" ry="105.041" fill="url(#paint5_linear_2983_77565)" fill-opacity="0.05"/>
<path d="M393.556 294.119C393.556 351.889 346.081 398.731 287.505 398.731C228.93 398.731 181.455 351.889 181.455 294.119C181.455 236.348 228.93 189.506 287.505 189.506C346.081 189.506 393.556 236.348 393.556 294.119Z" stroke="white" stroke-opacity="0.04" stroke-width="0.855634"/>
<ellipse cx="167.709" cy="300.697" rx="106.478" ry="105.041" fill="url(#paint6_linear_2983_77565)" fill-opacity="0.05"/>
<path d="M273.759 300.697C273.759 358.467 226.284 405.31 167.709 405.31C109.133 405.31 61.6583 358.467 61.6583 300.697C61.6583 242.926 109.133 196.084 167.709 196.084C226.284 196.084 273.759 242.926 273.759 300.697Z" stroke="white" stroke-opacity="0.04" stroke-width="0.855634"/>
<ellipse cx="123.787" cy="259.982" rx="106.478" ry="105.041" fill="url(#paint7_linear_2983_77565)" fill-opacity="0.05"/>
<path d="M229.837 259.982C229.837 317.752 182.362 364.595 123.787 364.595C65.2112 364.595 17.7364 317.752 17.7364 259.982C17.7364 202.211 65.2112 155.369 123.787 155.369C182.362 155.369 229.837 202.211 229.837 259.982Z" stroke="white" stroke-opacity="0.04" stroke-width="0.855634"/>
<ellipse cx="106.478" cy="210.099" rx="106.478" ry="105.041" fill="url(#paint8_linear_2983_77565)" fill-opacity="0.05"/>
<path d="M212.528 210.099C212.528 267.87 165.053 314.712 106.478 314.712C47.9026 314.712 0.427817 267.87 0.427817 210.099C0.427817 152.329 47.9026 105.486 106.478 105.486C165.053 105.486 212.528 152.329 212.528 210.099Z" stroke="white" stroke-opacity="0.04" stroke-width="0.855634"/>
<ellipse cx="127.783" cy="151.005" rx="106.478" ry="105.041" fill="url(#paint9_linear_2983_77565)" fill-opacity="0.05"/>
<path d="M233.833 151.005C233.833 208.776 186.358 255.618 127.783 255.618C69.2073 255.618 21.7325 208.776 21.7325 151.005C21.7325 93.2348 69.2073 46.3927 127.783 46.3927C186.358 46.3927 233.833 93.2348 233.833 151.005Z" stroke="white" stroke-opacity="0.04" stroke-width="0.855634"/>
<ellipse cx="175.689" cy="115.541" rx="106.478" ry="105.041" fill="url(#paint10_linear_2983_77565)" fill-opacity="0.05"/>
<path d="M281.739 115.541C281.739 173.311 234.264 220.153 175.689 220.153C117.114 220.153 69.6388 173.311 69.6388 115.541C69.6388 57.77 117.114 10.9278 175.689 10.9278C234.264 10.9278 281.739 57.77 281.739 115.541Z" stroke="white" stroke-opacity="0.04" stroke-width="0.855634"/>
<defs>
<linearGradient id="paint0_linear_2983_77565" x1="148.37" y1="53.8333" x2="265.821" y2="176.882" gradientUnits="userSpaceOnUse">
<stop stop-color="#F3F3F3"/>
<stop offset="1" stop-color="white"/>
</linearGradient>
<linearGradient id="paint1_linear_2983_77565" x1="246.616" y1="58.8333" x2="364.067" y2="181.882" gradientUnits="userSpaceOnUse">
<stop stop-color="#F3F3F3"/>
<stop offset="1" stop-color="white"/>
</linearGradient>
<linearGradient id="paint2_linear_2983_77565" x1="246.901" y1="156.267" x2="364.352" y2="279.316" gradientUnits="userSpaceOnUse">
<stop stop-color="#F3F3F3"/>
<stop offset="1" stop-color="white"/>
</linearGradient>
<linearGradient id="paint3_linear_2983_77565" x1="229.589" y1="213.993" x2="347.039" y2="337.042" gradientUnits="userSpaceOnUse">
<stop stop-color="#F3F3F3"/>
<stop offset="1" stop-color="white"/>
</linearGradient>
<linearGradient id="paint4_linear_2983_77565" x1="163.046" y1="258.63" x2="280.496" y2="381.679" gradientUnits="userSpaceOnUse">
<stop stop-color="#F3F3F3"/>
<stop offset="1" stop-color="white"/>
</linearGradient>
<linearGradient id="paint5_linear_2983_77565" x1="209.643" y1="242.911" x2="327.094" y2="365.96" gradientUnits="userSpaceOnUse">
<stop stop-color="#F3F3F3"/>
<stop offset="1" stop-color="white"/>
</linearGradient>
<linearGradient id="paint6_linear_2983_77565" x1="89.8465" y1="249.49" x2="207.297" y2="372.538" gradientUnits="userSpaceOnUse">
<stop stop-color="#F3F3F3"/>
<stop offset="1" stop-color="white"/>
</linearGradient>
<linearGradient id="paint7_linear_2983_77565" x1="45.9246" y1="208.775" x2="163.375" y2="331.823" gradientUnits="userSpaceOnUse">
<stop stop-color="#F3F3F3"/>
<stop offset="1" stop-color="white"/>
</linearGradient>
<linearGradient id="paint8_linear_2983_77565" x1="28.616" y1="158.892" x2="146.067" y2="281.941" gradientUnits="userSpaceOnUse">
<stop stop-color="#F3F3F3"/>
<stop offset="1" stop-color="white"/>
</linearGradient>
<linearGradient id="paint9_linear_2983_77565" x1="49.9207" y1="99.7981" x2="167.371" y2="222.847" gradientUnits="userSpaceOnUse">
<stop stop-color="#F3F3F3"/>
<stop offset="1" stop-color="white"/>
</linearGradient>
<linearGradient id="paint10_linear_2983_77565" x1="97.8269" y1="64.3333" x2="215.278" y2="187.382" gradientUnits="userSpaceOnUse">
<stop stop-color="#F3F3F3"/>
<stop offset="1" stop-color="white"/>
</linearGradient>
</defs>
</svg>
