<svg width="324" height="318" viewBox="0 0 324 318" fill="none" xmlns="http://www.w3.org/2000/svg">
<circle cx="164" cy="80" r="80" fill="url(#paint0_linear_4228_89812)" fill-opacity="0.05"/>
<circle cx="164" cy="80" r="79.5" stroke="white" stroke-opacity="0.04"/>
<circle cx="226" cy="110" r="80" fill="url(#paint1_linear_4228_89812)" fill-opacity="0.05"/>
<circle cx="226" cy="110" r="79.5" stroke="white" stroke-opacity="0.04"/>
<circle cx="244" cy="158" r="80" fill="url(#paint2_linear_4228_89812)" fill-opacity="0.25"/>
<circle cx="244" cy="158" r="79.5" stroke="white" stroke-opacity="0.04"/>
<circle cx="226" cy="206" r="80" fill="url(#paint3_linear_4228_89812)" fill-opacity="0.05"/>
<circle cx="226" cy="206" r="79.5" stroke="white" stroke-opacity="0.04"/>
<circle cx="164" cy="238" r="80" fill="url(#paint4_linear_4228_89812)" fill-opacity="0.05"/>
<circle cx="164" cy="238" r="79.5" stroke="white" stroke-opacity="0.04"/>
<circle cx="96" cy="206" r="80" fill="url(#paint5_linear_4228_89812)" fill-opacity="0.05"/>
<circle cx="96" cy="206" r="79.5" stroke="white" stroke-opacity="0.04"/>
<circle cx="80" cy="160" r="80" fill="url(#paint6_linear_4228_89812)" fill-opacity="0.05"/>
<circle cx="80" cy="160" r="79.5" stroke="white" stroke-opacity="0.04"/>
<circle cx="96" cy="115" r="80" fill="url(#paint7_linear_4228_89812)" fill-opacity="0.05"/>
<circle cx="96" cy="115" r="79.5" stroke="white" stroke-opacity="0.04"/>
<defs>
<linearGradient id="paint0_linear_4228_89812" x1="105.5" y1="41" x2="195" y2="133.5" gradientUnits="userSpaceOnUse">
<stop/>
<stop offset="1"/>
</linearGradient>
<linearGradient id="paint1_linear_4228_89812" x1="167.5" y1="71" x2="257" y2="163.5" gradientUnits="userSpaceOnUse">
<stop/>
<stop offset="1"/>
</linearGradient>
<linearGradient id="paint2_linear_4228_89812" x1="185.5" y1="119" x2="275" y2="211.5" gradientUnits="userSpaceOnUse">
<stop/>
<stop offset="1"/>
</linearGradient>
<linearGradient id="paint3_linear_4228_89812" x1="167.5" y1="167" x2="257" y2="259.5" gradientUnits="userSpaceOnUse">
<stop/>
<stop offset="1"/>
</linearGradient>
<linearGradient id="paint4_linear_4228_89812" x1="105.5" y1="199" x2="195" y2="291.5" gradientUnits="userSpaceOnUse">
<stop/>
<stop offset="1"/>
</linearGradient>
<linearGradient id="paint5_linear_4228_89812" x1="37.5" y1="167" x2="127" y2="259.5" gradientUnits="userSpaceOnUse">
<stop/>
<stop offset="1"/>
</linearGradient>
<linearGradient id="paint6_linear_4228_89812" x1="21.5" y1="121" x2="111" y2="213.5" gradientUnits="userSpaceOnUse">
<stop/>
<stop offset="1"/>
</linearGradient>
<linearGradient id="paint7_linear_4228_89812" x1="37.5" y1="76" x2="127" y2="168.5" gradientUnits="userSpaceOnUse">
<stop/>
<stop offset="1"/>
</linearGradient>
</defs>
</svg>
