<svg width="805" height="415" viewBox="0 0 805 415" fill="none" xmlns="http://www.w3.org/2000/svg">
<path d="M12.28 198.944C20.0453 198.944 25.9547 200.907 30.008 204.832C34.0613 208.757 36.088 214.304 36.088 221.472C36.088 228.64 34.0613 234.187 30.008 238.112C25.9547 242.037 20.0453 244 12.28 244H0.44V198.944H12.28ZM12.28 242.848C19.704 242.848 25.3147 240.971 29.112 237.216C32.9093 233.461 34.808 228.213 34.808 221.472C34.808 214.731 32.9093 209.483 29.112 205.728C25.3147 201.973 19.704 200.096 12.28 200.096H1.72V242.848H12.28ZM161.218 231.584H138.946L134.21 244H132.738L149.442 200.288H150.722L167.362 244H165.89L161.218 231.584ZM160.77 230.432L150.082 202.336L139.394 230.432H160.77ZM288.935 198.944V200.096H275.815V244H274.535V200.096H261.415V198.944H288.935ZM411.477 231.584H389.205L384.469 244H382.997L399.701 200.288H400.981L417.621 244H416.149L411.477 231.584ZM411.029 230.432L400.341 202.336L389.653 230.432H411.029ZM539.195 198.944V200.096H526.075V244H524.795V200.096H511.675V198.944H539.195ZM656.681 244.512C652.543 244.512 648.831 243.552 645.545 241.632C642.303 239.669 639.764 236.939 637.929 233.44C636.095 229.941 635.177 225.973 635.177 221.536C635.177 217.099 636.095 213.131 637.929 209.632C639.764 206.133 642.303 203.424 645.545 201.504C648.831 199.541 652.543 198.56 656.681 198.56C660.82 198.56 664.511 199.541 667.753 201.504C671.039 203.424 673.599 206.133 675.433 209.632C677.268 213.131 678.185 217.099 678.185 221.536C678.185 225.973 677.268 229.941 675.433 233.44C673.599 236.939 671.039 239.669 667.753 241.632C664.511 243.552 660.82 244.512 656.681 244.512ZM656.681 243.36C660.436 243.36 663.849 242.485 666.921 240.736C669.993 238.944 672.404 236.405 674.153 233.12C675.945 229.792 676.841 225.931 676.841 221.536C676.841 217.141 675.945 213.301 674.153 210.016C672.404 206.688 669.993 204.149 666.921 202.4C663.849 200.608 660.436 199.712 656.681 199.712C652.927 199.712 649.513 200.608 646.441 202.4C643.369 204.149 640.937 206.688 639.145 210.016C637.396 213.301 636.521 217.141 636.521 221.536C636.521 225.931 637.396 229.792 639.145 233.12C640.937 236.405 643.369 238.944 646.441 240.736C649.513 242.485 652.927 243.36 656.681 243.36ZM802.985 244L790.953 224.352H789.737H779.625V244H778.345V198.944H789.609C794.558 198.944 798.228 200.075 800.617 202.336C803.049 204.597 804.265 207.691 804.265 211.616C804.265 215.243 803.241 218.144 801.193 220.32C799.145 222.496 796.222 223.797 792.425 224.224L804.585 244H802.985ZM789.737 223.136C794.132 223.136 797.417 222.091 799.593 220C801.812 217.909 802.921 215.115 802.921 211.616C802.921 204.021 798.484 200.224 789.609 200.224H779.625V223.136H789.737Z" fill="#2A2B2D"/>
<ellipse cx="409.268" cy="105.033" rx="106.479" ry="105.033" fill="url(#paint0_linear_97_9813)" fill-opacity="0.05"/>
<path d="M515.247 105.033C515.247 162.758 467.805 209.566 409.268 209.566C350.731 209.566 303.289 162.758 303.289 105.033C303.289 47.3073 350.731 0.5 409.268 0.5C467.805 0.5 515.247 47.3073 515.247 105.033Z" stroke="white" stroke-opacity="0.04"/>
<ellipse cx="483.803" cy="144.419" rx="106.479" ry="105.033" fill="url(#paint1_linear_97_9813)" fill-opacity="0.05"/>
<path d="M589.782 144.419C589.782 202.145 542.34 248.952 483.803 248.952C425.266 248.952 377.824 202.145 377.824 144.419C377.824 86.6941 425.266 39.8867 483.803 39.8867C542.34 39.8867 589.782 86.6941 589.782 144.419Z" stroke="white" stroke-opacity="0.04"/>
<ellipse cx="507.76" cy="207.439" rx="106.479" ry="105.033" fill="url(#paint2_linear_97_9813)" fill-opacity="0.05"/>
<path d="M613.739 207.439C613.739 265.164 566.297 311.972 507.76 311.972C449.223 311.972 401.781 265.164 401.781 207.439C401.781 149.714 449.223 102.906 507.76 102.906C566.297 102.906 613.739 149.714 613.739 207.439Z" stroke="white" stroke-opacity="0.04"/>
<ellipse cx="490.459" cy="265.209" rx="106.479" ry="105.033" fill="url(#paint3_linear_97_9813)" fill-opacity="0.05"/>
<path d="M596.438 265.209C596.438 322.934 548.997 369.741 490.459 369.741C431.922 369.741 384.48 322.934 384.48 265.209C384.48 207.483 431.922 160.676 490.459 160.676C548.997 160.676 596.438 207.483 596.438 265.209Z" stroke="white" stroke-opacity="0.04"/>
<ellipse cx="423.909" cy="309.845" rx="106.479" ry="105.033" fill="url(#paint4_linear_97_9813)" fill-opacity="0.05"/>
<path d="M529.888 309.845C529.888 367.571 482.446 414.378 423.909 414.378C365.372 414.378 317.93 367.571 317.93 309.845C317.93 252.12 365.372 205.312 423.909 205.312C482.446 205.312 529.888 252.12 529.888 309.845Z" stroke="white" stroke-opacity="0.04"/>
<ellipse cx="470.491" cy="294.095" rx="106.479" ry="105.033" fill="url(#paint5_linear_97_9813)" fill-opacity="0.05"/>
<path d="M576.47 294.095C576.47 351.821 529.028 398.628 470.491 398.628C411.954 398.628 364.512 351.821 364.512 294.095C364.512 236.37 411.954 189.562 470.491 189.562C529.028 189.562 576.47 236.37 576.47 294.095Z" stroke="white" stroke-opacity="0.04"/>
<ellipse cx="350.706" cy="300.658" rx="106.479" ry="105.033" fill="url(#paint6_linear_97_9813)" fill-opacity="0.05"/>
<path d="M456.685 300.658C456.685 358.383 409.243 405.191 350.706 405.191C292.169 405.191 244.727 358.383 244.727 300.658C244.727 242.932 292.169 196.125 350.706 196.125C409.243 196.125 456.685 242.932 456.685 300.658Z" stroke="white" stroke-opacity="0.04"/>
<ellipse cx="306.78" cy="259.955" rx="106.479" ry="105.033" fill="url(#paint7_linear_97_9813)" fill-opacity="0.05"/>
<path d="M412.759 259.955C412.759 317.68 365.317 364.487 306.78 364.487C248.243 364.487 200.801 317.68 200.801 259.955C200.801 202.229 248.243 155.422 306.78 155.422C365.317 155.422 412.759 202.229 412.759 259.955Z" stroke="white" stroke-opacity="0.04"/>
<ellipse cx="289.479" cy="210.064" rx="106.479" ry="105.033" fill="url(#paint8_linear_97_9813)" fill-opacity="0.05"/>
<path d="M395.458 210.064C395.458 267.789 348.016 314.597 289.479 314.597C230.942 314.597 183.5 267.789 183.5 210.064C183.5 152.339 230.942 105.531 289.479 105.531C348.016 105.531 395.458 152.339 395.458 210.064Z" stroke="white" stroke-opacity="0.04"/>
<ellipse cx="310.772" cy="150.986" rx="106.479" ry="105.033" fill="url(#paint9_linear_97_9813)" fill-opacity="0.05"/>
<path d="M416.751 150.986C416.751 208.711 369.309 255.519 310.772 255.519C252.235 255.519 204.793 208.711 204.793 150.986C204.793 93.2605 252.235 46.4531 310.772 46.4531C369.309 46.4531 416.751 93.2605 416.751 150.986Z" stroke="white" stroke-opacity="0.04"/>
<ellipse cx="358.69" cy="115.537" rx="106.479" ry="105.033" fill="url(#paint10_linear_97_9813)" fill-opacity="0.05"/>
<path d="M464.669 115.537C464.669 173.262 417.227 220.069 358.69 220.069C300.153 220.069 252.711 173.262 252.711 115.537C252.711 57.8112 300.153 11.0039 358.69 11.0039C417.227 11.0039 464.669 57.8112 464.669 115.537Z" stroke="white" stroke-opacity="0.04"/>
<defs>
<linearGradient id="paint0_linear_97_9813" x1="331.405" y1="53.8293" x2="448.847" y2="176.879" gradientUnits="userSpaceOnUse">
<stop/>
<stop offset="1"/>
</linearGradient>
<linearGradient id="paint1_linear_97_9813" x1="405.94" y1="93.216" x2="523.382" y2="216.265" gradientUnits="userSpaceOnUse">
<stop/>
<stop offset="1"/>
</linearGradient>
<linearGradient id="paint2_linear_97_9813" x1="429.897" y1="156.236" x2="547.339" y2="279.285" gradientUnits="userSpaceOnUse">
<stop/>
<stop offset="1"/>
</linearGradient>
<linearGradient id="paint3_linear_97_9813" x1="412.597" y1="214.005" x2="530.038" y2="337.054" gradientUnits="userSpaceOnUse">
<stop/>
<stop offset="1"/>
</linearGradient>
<linearGradient id="paint4_linear_97_9813" x1="346.046" y1="258.642" x2="463.487" y2="381.691" gradientUnits="userSpaceOnUse">
<stop/>
<stop offset="1"/>
</linearGradient>
<linearGradient id="paint5_linear_97_9813" x1="392.628" y1="242.892" x2="510.069" y2="365.941" gradientUnits="userSpaceOnUse">
<stop/>
<stop offset="1"/>
</linearGradient>
<linearGradient id="paint6_linear_97_9813" x1="272.843" y1="249.454" x2="390.284" y2="372.504" gradientUnits="userSpaceOnUse">
<stop/>
<stop offset="1"/>
</linearGradient>
<linearGradient id="paint7_linear_97_9813" x1="228.917" y1="208.751" x2="346.359" y2="331.801" gradientUnits="userSpaceOnUse">
<stop/>
<stop offset="1"/>
</linearGradient>
<linearGradient id="paint8_linear_97_9813" x1="211.616" y1="158.861" x2="329.058" y2="281.91" gradientUnits="userSpaceOnUse">
<stop/>
<stop offset="1"/>
</linearGradient>
<linearGradient id="paint9_linear_97_9813" x1="232.909" y1="99.7824" x2="350.351" y2="222.832" gradientUnits="userSpaceOnUse">
<stop/>
<stop offset="1"/>
</linearGradient>
<linearGradient id="paint10_linear_97_9813" x1="280.827" y1="64.3332" x2="398.269" y2="187.383" gradientUnits="userSpaceOnUse">
<stop/>
<stop offset="1"/>
</linearGradient>
</defs>
</svg>