<svg width="805" height="415" viewBox="0 0 805 415" fill="none" xmlns="http://www.w3.org/2000/svg">
<ellipse cx="410.232" cy="105.041" rx="106.478" ry="105.041" fill="url(#paint0_linear_97_9813)" fill-opacity="0.05"/>
<path d="M516.282 105.041C516.282 162.811 468.807 209.653 410.232 209.653C351.657 209.653 304.182 162.811 304.182 105.041C304.182 47.27 351.657 0.427817 410.232 0.427817C468.807 0.427817 516.282 47.27 516.282 105.041Z" stroke="white" stroke-opacity="0.04" stroke-width="0.855634"/>
<ellipse cx="484.791" cy="144.427" rx="106.478" ry="105.041" fill="url(#paint1_linear_97_9813)" fill-opacity="0.05"/>
<path d="M590.841 144.427C590.841 202.198 543.366 249.04 484.791 249.04C426.215 249.04 378.74 202.198 378.74 144.427C378.74 86.6567 426.215 39.8145 484.791 39.8145C543.366 39.8145 590.841 86.6567 590.841 144.427Z" stroke="white" stroke-opacity="0.04" stroke-width="0.855634"/>
<ellipse cx="508.763" cy="207.474" rx="106.478" ry="105.041" fill="url(#paint2_linear_97_9813)" fill-opacity="0.05"/>
<path d="M614.813 207.474C614.813 265.245 567.339 312.087 508.763 312.087C450.188 312.087 402.713 265.245 402.713 207.474C402.713 149.704 450.188 102.861 508.763 102.861C567.339 102.861 614.813 149.704 614.813 207.474Z" stroke="white" stroke-opacity="0.04" stroke-width="0.855634"/>
<ellipse cx="491.451" cy="265.201" rx="106.478" ry="105.041" fill="url(#paint3_linear_97_9813)" fill-opacity="0.05"/>
<path d="M597.501 265.201C597.501 322.971 550.026 369.813 491.451 369.813C432.875 369.813 385.4 322.971 385.4 265.201C385.4 207.43 432.875 160.588 491.451 160.588C550.026 160.588 597.501 207.43 597.501 265.201Z" stroke="white" stroke-opacity="0.04" stroke-width="0.855634"/>
<ellipse cx="424.908" cy="309.837" rx="106.478" ry="105.041" fill="url(#paint4_linear_97_9813)" fill-opacity="0.05"/>
<path d="M530.958 309.837C530.958 367.608 483.483 414.45 424.908 414.45C366.332 414.45 318.858 367.608 318.858 309.837C318.858 252.067 366.332 205.225 424.908 205.225C483.483 205.225 530.958 252.067 530.958 309.837Z" stroke="white" stroke-opacity="0.04" stroke-width="0.855634"/>
<ellipse cx="471.505" cy="294.119" rx="106.478" ry="105.041" fill="url(#paint5_linear_97_9813)" fill-opacity="0.05"/>
<path d="M577.556 294.119C577.556 351.889 530.081 398.731 471.505 398.731C412.93 398.731 365.455 351.889 365.455 294.119C365.455 236.348 412.93 189.506 471.505 189.506C530.081 189.506 577.556 236.348 577.556 294.119Z" stroke="white" stroke-opacity="0.04" stroke-width="0.855634"/>
<ellipse cx="351.709" cy="300.697" rx="106.478" ry="105.041" fill="url(#paint6_linear_97_9813)" fill-opacity="0.05"/>
<path d="M457.759 300.697C457.759 358.467 410.284 405.31 351.709 405.31C293.133 405.31 245.658 358.467 245.658 300.697C245.658 242.926 293.133 196.084 351.709 196.084C410.284 196.084 457.759 242.926 457.759 300.697Z" stroke="white" stroke-opacity="0.04" stroke-width="0.855634"/>
<ellipse cx="307.787" cy="259.982" rx="106.478" ry="105.041" fill="url(#paint7_linear_97_9813)" fill-opacity="0.05"/>
<path d="M413.837 259.982C413.837 317.752 366.362 364.595 307.787 364.595C249.211 364.595 201.736 317.752 201.736 259.982C201.736 202.211 249.211 155.369 307.787 155.369C366.362 155.369 413.837 202.211 413.837 259.982Z" stroke="white" stroke-opacity="0.04" stroke-width="0.855634"/>
<ellipse cx="290.478" cy="210.099" rx="106.478" ry="105.041" fill="url(#paint8_linear_97_9813)" fill-opacity="0.05"/>
<path d="M396.528 210.099C396.528 267.87 349.053 314.712 290.478 314.712C231.903 314.712 184.428 267.87 184.428 210.099C184.428 152.329 231.903 105.486 290.478 105.486C349.053 105.486 396.528 152.329 396.528 210.099Z" stroke="white" stroke-opacity="0.04" stroke-width="0.855634"/>
<ellipse cx="311.783" cy="151.005" rx="106.478" ry="105.041" fill="url(#paint9_linear_97_9813)" fill-opacity="0.05"/>
<path d="M417.833 151.005C417.833 208.776 370.358 255.618 311.783 255.618C253.207 255.618 205.733 208.776 205.733 151.005C205.733 93.2348 253.207 46.3927 311.783 46.3927C370.358 46.3927 417.833 93.2348 417.833 151.005Z" stroke="white" stroke-opacity="0.04" stroke-width="0.855634"/>
<ellipse cx="359.689" cy="115.541" rx="106.478" ry="105.041" fill="url(#paint10_linear_97_9813)" fill-opacity="0.05"/>
<path d="M465.739 115.541C465.739 173.311 418.264 220.153 359.689 220.153C301.114 220.153 253.639 173.311 253.639 115.541C253.639 57.77 301.114 10.9278 359.689 10.9278C418.264 10.9278 465.739 57.77 465.739 115.541Z" stroke="white" stroke-opacity="0.04" stroke-width="0.855634"/>
<path d="M12.28 188.944C20.0453 188.944 25.9547 190.907 30.008 194.832C34.0613 198.757 36.088 204.304 36.088 211.472C36.088 218.64 34.0613 224.187 30.008 228.112C25.9547 232.037 20.0453 234 12.28 234H0.44V188.944H12.28ZM12.28 232.848C19.704 232.848 25.3147 230.971 29.112 227.216C32.9093 223.461 34.808 218.213 34.808 211.472C34.808 204.731 32.9093 199.483 29.112 195.728C25.3147 191.973 19.704 190.096 12.28 190.096H1.72V232.848H12.28ZM161.218 221.584H138.946L134.21 234H132.738L149.442 190.288H150.722L167.362 234H165.89L161.218 221.584ZM160.77 220.432L150.082 192.336L139.394 220.432H160.77ZM288.935 188.944V190.096H275.815V234H274.535V190.096H261.415V188.944H288.935ZM411.477 221.584H389.205L384.469 234H382.997L399.701 190.288H400.981L417.621 234H416.149L411.477 221.584ZM411.029 220.432L400.341 192.336L389.653 220.432H411.029ZM539.195 188.944V190.096H526.075V234H524.795V190.096H511.675V188.944H539.195ZM656.681 234.512C652.543 234.512 648.831 233.552 645.545 231.632C642.303 229.669 639.764 226.939 637.929 223.44C636.095 219.941 635.177 215.973 635.177 211.536C635.177 207.099 636.095 203.131 637.929 199.632C639.764 196.133 642.303 193.424 645.545 191.504C648.831 189.541 652.543 188.56 656.681 188.56C660.82 188.56 664.511 189.541 667.753 191.504C671.039 193.424 673.599 196.133 675.433 199.632C677.268 203.131 678.185 207.099 678.185 211.536C678.185 215.973 677.268 219.941 675.433 223.44C673.599 226.939 671.039 229.669 667.753 231.632C664.511 233.552 660.82 234.512 656.681 234.512ZM656.681 233.36C660.436 233.36 663.849 232.485 666.921 230.736C669.993 228.944 672.404 226.405 674.153 223.12C675.945 219.792 676.841 215.931 676.841 211.536C676.841 207.141 675.945 203.301 674.153 200.016C672.404 196.688 669.993 194.149 666.921 192.4C663.849 190.608 660.436 189.712 656.681 189.712C652.927 189.712 649.513 190.608 646.441 192.4C643.369 194.149 640.937 196.688 639.145 200.016C637.396 203.301 636.521 207.141 636.521 211.536C636.521 215.931 637.396 219.792 639.145 223.12C640.937 226.405 643.369 228.944 646.441 230.736C649.513 232.485 652.927 233.36 656.681 233.36ZM802.985 234L790.953 214.352H789.737H779.625V234H778.345V188.944H789.609C794.558 188.944 798.228 190.075 800.617 192.336C803.049 194.597 804.265 197.691 804.265 201.616C804.265 205.243 803.241 208.144 801.193 210.32C799.145 212.496 796.222 213.797 792.425 214.224L804.585 234H802.985ZM789.737 213.136C794.132 213.136 797.417 212.091 799.593 210C801.812 207.909 802.921 205.115 802.921 201.616C802.921 194.021 798.484 190.224 789.609 190.224H779.625V213.136H789.737Z" fill="white"/>
<defs>
<linearGradient id="paint0_linear_97_9813" x1="332.37" y1="53.8333" x2="449.821" y2="176.882" gradientUnits="userSpaceOnUse">
<stop stop-color="#F3F3F3"/>
<stop offset="1" stop-color="white"/>
</linearGradient>
<linearGradient id="paint1_linear_97_9813" x1="406.928" y1="93.22" x2="524.379" y2="216.269" gradientUnits="userSpaceOnUse">
<stop stop-color="#F3F3F3"/>
<stop offset="1" stop-color="white"/>
</linearGradient>
<linearGradient id="paint2_linear_97_9813" x1="430.901" y1="156.267" x2="548.352" y2="279.316" gradientUnits="userSpaceOnUse">
<stop stop-color="#F3F3F3"/>
<stop offset="1" stop-color="white"/>
</linearGradient>
<linearGradient id="paint3_linear_97_9813" x1="413.589" y1="213.993" x2="531.039" y2="337.042" gradientUnits="userSpaceOnUse">
<stop stop-color="#F3F3F3"/>
<stop offset="1" stop-color="white"/>
</linearGradient>
<linearGradient id="paint4_linear_97_9813" x1="347.046" y1="258.63" x2="464.496" y2="381.679" gradientUnits="userSpaceOnUse">
<stop stop-color="#F3F3F3"/>
<stop offset="1" stop-color="white"/>
</linearGradient>
<linearGradient id="paint5_linear_97_9813" x1="393.643" y1="242.911" x2="511.094" y2="365.96" gradientUnits="userSpaceOnUse">
<stop stop-color="#F3F3F3"/>
<stop offset="1" stop-color="white"/>
</linearGradient>
<linearGradient id="paint6_linear_97_9813" x1="273.846" y1="249.49" x2="391.297" y2="372.538" gradientUnits="userSpaceOnUse">
<stop stop-color="#F3F3F3"/>
<stop offset="1" stop-color="white"/>
</linearGradient>
<linearGradient id="paint7_linear_97_9813" x1="229.925" y1="208.775" x2="347.375" y2="331.823" gradientUnits="userSpaceOnUse">
<stop stop-color="#F3F3F3"/>
<stop offset="1" stop-color="white"/>
</linearGradient>
<linearGradient id="paint8_linear_97_9813" x1="212.616" y1="158.892" x2="330.067" y2="281.941" gradientUnits="userSpaceOnUse">
<stop stop-color="#F3F3F3"/>
<stop offset="1" stop-color="white"/>
</linearGradient>
<linearGradient id="paint9_linear_97_9813" x1="233.921" y1="99.7981" x2="351.371" y2="222.847" gradientUnits="userSpaceOnUse">
<stop stop-color="#F3F3F3"/>
<stop offset="1" stop-color="white"/>
</linearGradient>
<linearGradient id="paint10_linear_97_9813" x1="281.827" y1="64.3333" x2="399.278" y2="187.382" gradientUnits="userSpaceOnUse">
<stop stop-color="#F3F3F3"/>
<stop offset="1" stop-color="white"/>
</linearGradient>
</defs>
</svg>
