<svg width="805" height="415" viewBox="0 0 805 415" fill="none" xmlns="http://www.w3.org/2000/svg">
<path d="M12.28 186.944C20.0453 186.944 25.9547 188.907 30.008 192.832C34.0613 196.757 36.088 202.304 36.088 209.472C36.088 216.64 34.0613 222.187 30.008 226.112C25.9547 230.037 20.0453 232 12.28 232H0.44V186.944H12.28ZM12.28 230.848C19.704 230.848 25.3147 228.971 29.112 225.216C32.9093 221.461 34.808 216.213 34.808 209.472C34.808 202.731 32.9093 197.483 29.112 193.728C25.3147 189.973 19.704 188.096 12.28 188.096H1.72V230.848H12.28ZM161.218 219.584H138.946L134.21 232H132.738L149.442 188.288H150.722L167.362 232H165.89L161.218 219.584ZM160.77 218.432L150.082 190.336L139.394 218.432H160.77ZM288.935 186.944V188.096H275.815V232H274.535V188.096H261.415V186.944H288.935ZM411.477 219.584H389.205L384.469 232H382.997L399.701 188.288H400.981L417.621 232H416.149L411.477 219.584ZM411.029 218.432L400.341 190.336L389.653 218.432H411.029ZM539.195 186.944V188.096H526.075V232H524.795V188.096H511.675V186.944H539.195ZM656.681 232.512C652.543 232.512 648.831 231.552 645.545 229.632C642.303 227.669 639.764 224.939 637.929 221.44C636.095 217.941 635.177 213.973 635.177 209.536C635.177 205.099 636.095 201.131 637.929 197.632C639.764 194.133 642.303 191.424 645.545 189.504C648.831 187.541 652.543 186.56 656.681 186.56C660.82 186.56 664.511 187.541 667.753 189.504C671.039 191.424 673.599 194.133 675.433 197.632C677.268 201.131 678.185 205.099 678.185 209.536C678.185 213.973 677.268 217.941 675.433 221.44C673.599 224.939 671.039 227.669 667.753 229.632C664.511 231.552 660.82 232.512 656.681 232.512ZM656.681 231.36C660.436 231.36 663.849 230.485 666.921 228.736C669.993 226.944 672.404 224.405 674.153 221.12C675.945 217.792 676.841 213.931 676.841 209.536C676.841 205.141 675.945 201.301 674.153 198.016C672.404 194.688 669.993 192.149 666.921 190.4C663.849 188.608 660.436 187.712 656.681 187.712C652.927 187.712 649.513 188.608 646.441 190.4C643.369 192.149 640.937 194.688 639.145 198.016C637.396 201.301 636.521 205.141 636.521 209.536C636.521 213.931 637.396 217.792 639.145 221.12C640.937 224.405 643.369 226.944 646.441 228.736C649.513 230.485 652.927 231.36 656.681 231.36ZM802.985 232L790.953 212.352H789.737H779.625V232H778.345V186.944H789.609C794.558 186.944 798.228 188.075 800.617 190.336C803.049 192.597 804.265 195.691 804.265 199.616C804.265 203.243 803.241 206.144 801.193 208.32C799.145 210.496 796.222 211.797 792.425 212.224L804.585 232H802.985ZM789.737 211.136C794.132 211.136 797.417 210.091 799.593 208C801.812 205.909 802.921 203.115 802.921 199.616C802.921 192.021 798.484 188.224 789.609 188.224H779.625V211.136H789.737Z" fill="#2A2B2D"/>
<ellipse cx="412.268" cy="105.033" rx="106.479" ry="105.033" fill="url(#paint0_linear_97_9813)" fill-opacity="0.05"/>
<path d="M518.247 105.033C518.247 162.758 470.805 209.566 412.268 209.566C353.731 209.566 306.289 162.758 306.289 105.033C306.289 47.3073 353.731 0.5 412.268 0.5C470.805 0.5 518.247 47.3073 518.247 105.033Z" stroke="white" stroke-opacity="0.04"/>
<ellipse cx="486.803" cy="144.419" rx="106.479" ry="105.033" fill="url(#paint1_linear_97_9813)" fill-opacity="0.05"/>
<path d="M592.782 144.419C592.782 202.145 545.34 248.952 486.803 248.952C428.266 248.952 380.824 202.145 380.824 144.419C380.824 86.6941 428.266 39.8867 486.803 39.8867C545.34 39.8867 592.782 86.6941 592.782 144.419Z" stroke="white" stroke-opacity="0.04"/>
<ellipse cx="510.76" cy="207.439" rx="106.479" ry="105.033" fill="url(#paint2_linear_97_9813)" fill-opacity="0.05"/>
<path d="M616.739 207.439C616.739 265.164 569.297 311.972 510.76 311.972C452.223 311.972 404.781 265.164 404.781 207.439C404.781 149.714 452.223 102.906 510.76 102.906C569.297 102.906 616.739 149.714 616.739 207.439Z" stroke="white" stroke-opacity="0.04"/>
<ellipse cx="493.459" cy="265.209" rx="106.479" ry="105.033" fill="url(#paint3_linear_97_9813)" fill-opacity="0.05"/>
<path d="M599.438 265.209C599.438 322.934 551.997 369.741 493.459 369.741C434.922 369.741 387.48 322.934 387.48 265.209C387.48 207.483 434.922 160.676 493.459 160.676C551.997 160.676 599.438 207.483 599.438 265.209Z" stroke="white" stroke-opacity="0.04"/>
<ellipse cx="426.909" cy="309.845" rx="106.479" ry="105.033" fill="url(#paint4_linear_97_9813)" fill-opacity="0.05"/>
<path d="M532.888 309.845C532.888 367.571 485.446 414.378 426.909 414.378C368.372 414.378 320.93 367.571 320.93 309.845C320.93 252.12 368.372 205.312 426.909 205.312C485.446 205.312 532.888 252.12 532.888 309.845Z" stroke="white" stroke-opacity="0.04"/>
<ellipse cx="473.491" cy="294.095" rx="106.479" ry="105.033" fill="url(#paint5_linear_97_9813)" fill-opacity="0.05"/>
<path d="M579.47 294.095C579.47 351.821 532.028 398.628 473.491 398.628C414.954 398.628 367.512 351.821 367.512 294.095C367.512 236.37 414.954 189.562 473.491 189.562C532.028 189.562 579.47 236.37 579.47 294.095Z" stroke="white" stroke-opacity="0.04"/>
<ellipse cx="353.706" cy="300.658" rx="106.479" ry="105.033" fill="url(#paint6_linear_97_9813)" fill-opacity="0.05"/>
<path d="M459.685 300.658C459.685 358.383 412.243 405.191 353.706 405.191C295.169 405.191 247.727 358.383 247.727 300.658C247.727 242.932 295.169 196.125 353.706 196.125C412.243 196.125 459.685 242.932 459.685 300.658Z" stroke="white" stroke-opacity="0.04"/>
<ellipse cx="309.78" cy="259.955" rx="106.479" ry="105.033" fill="url(#paint7_linear_97_9813)" fill-opacity="0.05"/>
<path d="M415.759 259.955C415.759 317.68 368.317 364.487 309.78 364.487C251.243 364.487 203.801 317.68 203.801 259.955C203.801 202.229 251.243 155.422 309.78 155.422C368.317 155.422 415.759 202.229 415.759 259.955Z" stroke="white" stroke-opacity="0.04"/>
<ellipse cx="292.479" cy="210.064" rx="106.479" ry="105.033" fill="url(#paint8_linear_97_9813)" fill-opacity="0.05"/>
<path d="M398.458 210.064C398.458 267.789 351.016 314.597 292.479 314.597C233.942 314.597 186.5 267.789 186.5 210.064C186.5 152.339 233.942 105.531 292.479 105.531C351.016 105.531 398.458 152.339 398.458 210.064Z" stroke="white" stroke-opacity="0.04"/>
<ellipse cx="313.772" cy="150.986" rx="106.479" ry="105.033" fill="url(#paint9_linear_97_9813)" fill-opacity="0.05"/>
<path d="M419.751 150.986C419.751 208.711 372.309 255.519 313.772 255.519C255.235 255.519 207.793 208.711 207.793 150.986C207.793 93.2605 255.235 46.4531 313.772 46.4531C372.309 46.4531 419.751 93.2605 419.751 150.986Z" stroke="white" stroke-opacity="0.04"/>
<ellipse cx="361.69" cy="115.537" rx="106.479" ry="105.033" fill="url(#paint10_linear_97_9813)" fill-opacity="0.05"/>
<path d="M467.669 115.537C467.669 173.262 420.227 220.069 361.69 220.069C303.153 220.069 255.711 173.262 255.711 115.537C255.711 57.8112 303.153 11.0039 361.69 11.0039C420.227 11.0039 467.669 57.8112 467.669 115.537Z" stroke="white" stroke-opacity="0.04"/>
<defs>
<linearGradient id="paint0_linear_97_9813" x1="334.405" y1="53.8293" x2="451.847" y2="176.879" gradientUnits="userSpaceOnUse">
<stop/>
<stop offset="1"/>
</linearGradient>
<linearGradient id="paint1_linear_97_9813" x1="408.94" y1="93.216" x2="526.382" y2="216.265" gradientUnits="userSpaceOnUse">
<stop/>
<stop offset="1"/>
</linearGradient>
<linearGradient id="paint2_linear_97_9813" x1="432.897" y1="156.236" x2="550.339" y2="279.285" gradientUnits="userSpaceOnUse">
<stop/>
<stop offset="1"/>
</linearGradient>
<linearGradient id="paint3_linear_97_9813" x1="415.597" y1="214.005" x2="533.038" y2="337.054" gradientUnits="userSpaceOnUse">
<stop/>
<stop offset="1"/>
</linearGradient>
<linearGradient id="paint4_linear_97_9813" x1="349.046" y1="258.642" x2="466.487" y2="381.691" gradientUnits="userSpaceOnUse">
<stop/>
<stop offset="1"/>
</linearGradient>
<linearGradient id="paint5_linear_97_9813" x1="395.628" y1="242.892" x2="513.069" y2="365.941" gradientUnits="userSpaceOnUse">
<stop/>
<stop offset="1"/>
</linearGradient>
<linearGradient id="paint6_linear_97_9813" x1="275.843" y1="249.454" x2="393.284" y2="372.504" gradientUnits="userSpaceOnUse">
<stop/>
<stop offset="1"/>
</linearGradient>
<linearGradient id="paint7_linear_97_9813" x1="231.917" y1="208.751" x2="349.359" y2="331.801" gradientUnits="userSpaceOnUse">
<stop/>
<stop offset="1"/>
</linearGradient>
<linearGradient id="paint8_linear_97_9813" x1="214.616" y1="158.861" x2="332.058" y2="281.91" gradientUnits="userSpaceOnUse">
<stop/>
<stop offset="1"/>
</linearGradient>
<linearGradient id="paint9_linear_97_9813" x1="235.909" y1="99.7824" x2="353.351" y2="222.832" gradientUnits="userSpaceOnUse">
<stop/>
<stop offset="1"/>
</linearGradient>
<linearGradient id="paint10_linear_97_9813" x1="283.827" y1="64.3332" x2="401.269" y2="187.383" gradientUnits="userSpaceOnUse">
<stop/>
<stop offset="1"/>
</linearGradient>
</defs>
</svg>
