<svg width="28" height="28" viewBox="0 0 28 28" fill="none" xmlns="http://www.w3.org/2000/svg">
<path d="M3.15897 13.7795H4.15897V20.7795C4.15897 21.8825 5.05597 22.7795 6.15897 22.7795H18.159C19.262 22.7795 20.159 21.8825 20.159 20.7795V13.7795H21.159C21.3567 13.7795 21.55 13.7208 21.7144 13.6109C21.8788 13.501 22.007 13.3449 22.0826 13.1622C22.1583 12.9795 22.1781 12.7784 22.1395 12.5845C22.101 12.3905 22.0058 12.2123 21.866 12.0725L12.866 3.0725C12.7732 2.97955 12.663 2.90581 12.5417 2.8555C12.4203 2.80519 12.2903 2.7793 12.159 2.7793C12.0276 2.7793 11.8976 2.80519 11.7763 2.8555C11.655 2.90581 11.5448 2.97955 11.452 3.0725L2.45197 12.0725C2.31216 12.2123 2.21695 12.3905 2.17838 12.5845C2.13982 12.7784 2.15962 12.9795 2.23529 13.1622C2.31096 13.3449 2.4391 13.501 2.60351 13.6109C2.76792 13.7208 2.96122 13.7795 3.15897 13.7795ZM10.159 20.7795V15.7795H14.159V20.7795H10.159ZM12.159 5.1935L18.159 11.1935V15.7795L18.16 20.7795H16.159V15.7795C16.159 14.6765 15.262 13.7795 14.159 13.7795H10.159C9.05597 13.7795 8.15897 14.6765 8.15897 15.7795V20.7795H6.15897V11.1935L12.159 5.1935Z" fill="black"/>
</svg>
