<svg width="20" height="20" viewBox="0 0 20 20" fill="none" xmlns="http://www.w3.org/2000/svg">
<path d="M4.995 10C4.995 12.761 7.241 15.007 10.002 15.007C12.763 15.007 15.009 12.761 15.009 10C15.009 7.239 12.763 4.993 10.002 4.993C7.241 4.993 4.995 7.239 4.995 10ZM10.002 6.993C11.66 6.993 13.009 8.342 13.009 10C13.009 11.658 11.66 13.007 10.002 13.007C8.344 13.007 6.995 11.658 6.995 10C6.995 8.342 8.344 6.993 10.002 6.993ZM9 17H11V20H9V17ZM9 0H11V3H9V0ZM0 9H3V11H0V9ZM17 9H20V11H17V9ZM2.221 16.363L4.341 14.241L5.756 15.655L3.636 17.777L2.221 16.363ZM14.242 4.344L16.364 2.222L17.778 3.636L15.656 5.758L14.242 4.344ZM4.344 5.759L2.222 3.637L3.637 2.223L5.757 4.345L4.344 5.759ZM17.778 16.364L16.364 17.778L14.242 15.656L15.656 14.242L17.778 16.364Z" fill="white"/>
</svg>
