<svg width="226" height="166" viewBox="0 0 226 166" fill="none" xmlns="http://www.w3.org/2000/svg">
<rect x="69.4492" width="51.8353" height="14.9468" transform="rotate(45 69.4492 0)" fill="black"/>
<rect x="121.617" y="53.0742" width="49.1295" height="14.9468" transform="rotate(45 121.617 53.0742)" fill="black"/>
<rect x="158.492" y="10.6797" width="124.058" height="14.9468" transform="rotate(135 158.492 10.6797)" fill="#009A9C"/>
<path d="M4.59793 151.851C3.55885 151.851 3.03931 151.305 3.03931 150.214V133.966C3.03931 132.901 3.54586 132.368 4.55897 132.368C5.59805 132.368 6.11759 132.901 6.11759 133.966V135.836C6.68908 134.693 7.48138 133.823 8.49448 133.225C9.50759 132.602 10.6895 132.29 12.0403 132.29C15.0017 132.29 16.898 133.576 17.7293 136.148C18.3008 134.953 19.1451 134.018 20.2621 133.342C21.3791 132.641 22.6649 132.29 24.1197 132.29C28.3279 132.29 30.4321 134.784 30.4321 139.772V150.214C30.4321 151.305 29.8995 151.851 28.8345 151.851C27.7954 151.851 27.2759 151.305 27.2759 150.214V139.927C27.2759 138.187 26.9641 136.914 26.3407 136.109C25.7432 135.278 24.7431 134.862 23.3403 134.862C21.8077 134.862 20.5868 135.407 19.6776 136.498C18.7684 137.59 18.3138 139.044 18.3138 140.863V150.214C18.3138 151.305 17.7813 151.851 16.7162 151.851C15.6771 151.851 15.1576 151.305 15.1576 150.214V139.927C15.1576 138.187 14.8459 136.914 14.2224 136.109C13.6249 135.278 12.6248 134.862 11.2221 134.862C9.66345 134.862 8.42954 135.407 7.52035 136.498C6.63713 137.59 6.19552 139.044 6.19552 140.863V150.214C6.19552 151.305 5.66299 151.851 4.59793 151.851ZM44.2043 151.929C42.3599 151.929 40.7623 151.526 39.4115 150.721C38.0607 149.916 37.0086 148.786 36.2553 147.331C35.5279 145.85 35.1643 144.11 35.1643 142.11C35.1643 140.109 35.5279 138.382 36.2553 136.927C37.0086 135.446 38.0607 134.303 39.4115 133.498C40.7623 132.693 42.3599 132.29 44.2043 132.29C46.0226 132.29 47.6072 132.693 48.958 133.498C50.3348 134.303 51.3869 135.446 52.1143 136.927C52.8676 138.382 53.2443 140.109 53.2443 142.11C53.2443 144.11 52.8676 145.85 52.1143 147.331C51.3869 148.786 50.3348 149.916 48.958 150.721C47.6072 151.526 46.0226 151.929 44.2043 151.929ZM44.2043 149.396C45.9707 149.396 47.3864 148.773 48.4515 147.526C49.5166 146.253 50.0491 144.447 50.0491 142.11C50.0491 139.746 49.5166 137.94 48.4515 136.693C47.3864 135.446 45.9707 134.823 44.2043 134.823C42.4118 134.823 40.9831 135.446 39.918 136.693C38.879 137.94 38.3594 139.746 38.3594 142.11C38.3594 144.447 38.879 146.253 39.918 147.526C40.9831 148.773 42.4118 149.396 44.2043 149.396ZM67.5705 151.929C66.0898 151.929 64.7779 151.604 63.635 150.955C62.492 150.279 61.6477 149.357 61.1022 148.188V150.214C61.1022 151.305 60.5827 151.851 59.5436 151.851C58.5045 151.851 57.985 151.305 57.985 150.214V125.432C57.985 124.367 58.5045 123.835 59.5436 123.835C60.6086 123.835 61.1412 124.367 61.1412 125.432V135.914C61.6867 134.797 62.5309 133.914 63.6739 133.264C64.8169 132.615 66.1158 132.29 67.5705 132.29C69.259 132.29 70.7267 132.693 71.9736 133.498C73.2465 134.277 74.2206 135.407 74.896 136.888C75.5974 138.343 75.9481 140.083 75.9481 142.11C75.9481 144.11 75.5974 145.85 74.896 147.331C74.2206 148.786 73.2465 149.916 71.9736 150.721C70.7267 151.526 69.259 151.929 67.5705 151.929ZM66.9081 149.396C68.6745 149.396 70.0902 148.773 71.1553 147.526C72.2204 146.253 72.7529 144.447 72.7529 142.11C72.7529 139.746 72.2204 137.94 71.1553 136.693C70.0902 135.446 68.6745 134.823 66.9081 134.823C65.1416 134.823 63.7259 135.446 62.6608 136.693C61.5958 137.94 61.0632 139.746 61.0632 142.11C61.0632 144.447 61.5958 146.253 62.6608 147.526C63.7259 148.773 65.1416 149.396 66.9081 149.396ZM82.2608 128.082C80.884 128.082 80.1956 127.432 80.1956 126.134C80.1956 124.861 80.884 124.224 82.2608 124.224C83.6376 124.224 84.3259 124.861 84.3259 126.134C84.3259 127.432 83.6376 128.082 82.2608 128.082ZM82.2608 151.773C81.2217 151.773 80.7022 151.201 80.7022 150.058V134.122C80.7022 133.005 81.2217 132.446 82.2608 132.446C83.3258 132.446 83.8584 133.005 83.8584 134.122V150.058C83.8584 151.201 83.3258 151.773 82.2608 151.773ZM95.5255 151.929C93.6552 151.929 92.2264 151.37 91.2393 150.253C90.2522 149.11 89.7586 147.461 89.7586 145.305V125.432C89.7586 124.367 90.2781 123.835 91.3172 123.835C92.3823 123.835 92.9148 124.367 92.9148 125.432V145.071C92.9148 147.85 94.0188 149.24 96.2269 149.24C96.4607 149.24 96.6685 149.227 96.8503 149.201C97.0322 149.175 97.214 149.162 97.3958 149.162C97.6816 149.136 97.8764 149.201 97.9803 149.357C98.1102 149.513 98.1752 149.825 98.1752 150.292C98.1752 151.175 97.7335 151.682 96.8503 151.812C96.6425 151.864 96.4217 151.89 96.1879 151.89C95.9541 151.916 95.7333 151.929 95.5255 151.929ZM102.847 128.082C101.47 128.082 100.782 127.432 100.782 126.134C100.782 124.861 101.47 124.224 102.847 124.224C104.224 124.224 104.912 124.861 104.912 126.134C104.912 127.432 104.224 128.082 102.847 128.082ZM102.847 151.773C101.808 151.773 101.288 151.201 101.288 150.058V134.122C101.288 133.005 101.808 132.446 102.847 132.446C103.912 132.446 104.445 133.005 104.445 134.122V150.058C104.445 151.201 103.912 151.773 102.847 151.773ZM117.943 151.929C115.709 151.929 114.034 151.344 112.917 150.175C111.8 148.98 111.241 147.266 111.241 145.032V135.096H108.63C107.721 135.096 107.267 134.68 107.267 133.849C107.267 133.044 107.721 132.641 108.63 132.641H111.241V128.16C111.241 127.095 111.774 126.562 112.839 126.562C113.878 126.562 114.397 127.095 114.397 128.16V132.641H119.307C120.216 132.641 120.671 133.044 120.671 133.849C120.671 134.68 120.216 135.096 119.307 135.096H114.397V144.72C114.397 146.201 114.709 147.331 115.332 148.11C115.956 148.864 116.969 149.24 118.372 149.24C118.865 149.24 119.281 149.188 119.619 149.084C119.956 148.98 120.255 148.928 120.515 148.928C120.749 148.902 120.943 148.98 121.099 149.162C121.255 149.344 121.333 149.656 121.333 150.097C121.333 150.409 121.268 150.695 121.138 150.955C121.034 151.214 120.84 151.396 120.554 151.5C120.242 151.604 119.826 151.695 119.307 151.773C118.813 151.877 118.359 151.929 117.943 151.929ZM128.404 158.865C127.807 158.865 127.404 158.631 127.196 158.163C126.988 157.722 127.001 157.215 127.235 156.644L129.612 151.266L122.442 134.589C122.183 133.992 122.17 133.472 122.403 133.031C122.663 132.589 123.144 132.368 123.845 132.368C124.573 132.368 125.105 132.784 125.443 133.615L131.327 147.993L137.249 133.615C137.457 133.147 137.678 132.823 137.912 132.641C138.146 132.459 138.483 132.368 138.925 132.368C139.522 132.368 139.925 132.589 140.133 133.031C140.341 133.472 140.328 133.979 140.094 134.55L130.119 157.618C129.911 158.085 129.677 158.41 129.417 158.592C129.183 158.774 128.846 158.865 128.404 158.865ZM145.186 151.89C144.536 151.89 144.004 151.721 143.588 151.383C143.172 151.02 142.926 150.578 142.848 150.058C142.796 149.513 142.977 148.967 143.393 148.422L151.498 137.59L143.822 127.303C143.406 126.731 143.224 126.186 143.276 125.666C143.328 125.121 143.562 124.679 143.978 124.341C144.393 123.978 144.913 123.796 145.536 123.796C146.497 123.796 147.368 124.328 148.147 125.393L154.342 133.966L160.538 125.393C161.317 124.328 162.2 123.796 163.188 123.796C163.837 123.796 164.37 123.965 164.785 124.302C165.201 124.64 165.435 125.082 165.487 125.627C165.539 126.147 165.344 126.705 164.902 127.303L157.226 137.59L165.292 148.422C165.707 148.967 165.889 149.513 165.837 150.058C165.785 150.578 165.552 151.02 165.136 151.383C164.72 151.721 164.175 151.89 163.499 151.89C162.564 151.89 161.694 151.344 160.889 150.253L154.342 141.291L147.835 150.253C147.03 151.344 146.147 151.89 145.186 151.89ZM177.231 151.968C172.893 151.968 170.724 149.539 170.724 144.681V126.251C170.724 124.614 171.529 123.796 173.14 123.796C174.776 123.796 175.594 124.614 175.594 126.251V144.447C175.594 146.785 176.569 147.954 178.517 147.954C178.725 147.954 178.92 147.954 179.101 147.954C179.283 147.928 179.465 147.902 179.647 147.876C180.011 147.824 180.257 147.928 180.387 148.188C180.517 148.422 180.582 148.915 180.582 149.669C180.582 150.318 180.452 150.825 180.192 151.188C179.933 151.552 179.504 151.773 178.907 151.851C178.361 151.929 177.803 151.968 177.231 151.968ZM189.44 151.968C188.064 151.968 186.83 151.708 185.739 151.188C184.674 150.643 183.829 149.916 183.206 149.006C182.608 148.097 182.31 147.071 182.31 145.928C182.31 144.525 182.673 143.421 183.401 142.616C184.128 141.785 185.31 141.187 186.947 140.824C188.583 140.46 190.778 140.278 193.532 140.278H194.895V139.46C194.895 138.161 194.61 137.226 194.038 136.654C193.467 136.083 192.506 135.797 191.155 135.797C190.401 135.797 189.583 135.888 188.7 136.07C187.843 136.252 186.934 136.563 185.972 137.005C185.349 137.291 184.829 137.33 184.414 137.122C183.998 136.888 183.712 136.537 183.557 136.07C183.427 135.576 183.453 135.083 183.634 134.589C183.842 134.096 184.245 133.732 184.842 133.498C186.037 133.005 187.18 132.654 188.271 132.446C189.388 132.238 190.401 132.134 191.311 132.134C194.09 132.134 196.155 132.784 197.506 134.083C198.857 135.355 199.532 137.343 199.532 140.044V149.396C199.532 151.059 198.779 151.89 197.272 151.89C195.74 151.89 194.973 151.059 194.973 149.396V148.539C194.532 149.604 193.83 150.448 192.869 151.072C191.908 151.669 190.765 151.968 189.44 151.968ZM190.453 148.617C191.726 148.617 192.778 148.175 193.61 147.292C194.467 146.409 194.895 145.292 194.895 143.941V143.084H193.571C191.129 143.084 189.427 143.278 188.466 143.668C187.531 144.032 187.063 144.707 187.063 145.694C187.063 146.552 187.362 147.253 187.96 147.798C188.557 148.344 189.388 148.617 190.453 148.617ZM215.464 151.968C214.062 151.968 212.815 151.669 211.724 151.072C210.633 150.448 209.814 149.617 209.269 148.578V149.396C209.269 151.059 208.477 151.89 206.892 151.89C205.281 151.89 204.476 151.059 204.476 149.396V126.251C204.476 124.614 205.281 123.796 206.892 123.796C208.529 123.796 209.347 124.614 209.347 126.251V135.33C209.918 134.368 210.737 133.602 211.802 133.031C212.893 132.433 214.114 132.134 215.464 132.134C217.153 132.134 218.621 132.537 219.868 133.342C221.114 134.148 222.089 135.291 222.79 136.771C223.491 138.226 223.842 139.979 223.842 142.032C223.842 144.058 223.491 145.824 222.79 147.331C222.089 148.812 221.101 149.955 219.829 150.76C218.582 151.565 217.127 151.968 215.464 151.968ZM214.101 148.266C215.555 148.266 216.724 147.747 217.608 146.707C218.491 145.642 218.932 144.084 218.932 142.032C218.932 139.953 218.491 138.408 217.608 137.395C216.724 136.356 215.555 135.836 214.101 135.836C212.646 135.836 211.477 136.356 210.594 137.395C209.711 138.408 209.269 139.953 209.269 142.032C209.269 144.084 209.711 145.642 210.594 146.707C211.477 147.747 212.646 148.266 214.101 148.266Z" fill="black"/>
</svg>
