<svg width="115" height="144" viewBox="0 0 115 144" fill="none" xmlns="http://www.w3.org/2000/svg">
<path d="M115 72C115 64.0584 108.553 57.6 100.625 57.6H93.4375V36C93.4375 16.1496 77.3159 0 57.5 0C37.6841 0 21.5625 16.1496 21.5625 36V57.6H14.375C6.44719 57.6 0 64.0584 0 72V129.6C0 137.542 6.44719 144 14.375 144H100.625C108.553 144 115 137.542 115 129.6V72ZM35.9375 36C35.9375 24.0912 45.6119 14.4 57.5 14.4C69.3881 14.4 79.0625 24.0912 79.0625 36V57.6H35.9375V36Z" fill="white" fill-opacity="0.66"/>
</svg>
