<svg width="377" height="163" viewBox="0 0 377 163" fill="none" xmlns="http://www.w3.org/2000/svg">
<rect width="377" height="163" rx="14" fill="#303030"/>
<path d="M54.8906 116L53.1797 111.242H46.6289L44.9531 116H42L48.4102 98.7969H51.457L57.8672 116H54.8906ZM52.4414 108.828L50.8359 104.164C50.7188 103.852 50.5547 103.359 50.3438 102.688C50.1406 102.016 50 101.523 49.9219 101.211C49.7109 102.172 49.4023 103.223 48.9961 104.363L47.4492 108.828H52.4414ZM65.0625 116.234C63.1016 116.234 61.6094 115.664 60.5859 114.523C59.5703 113.375 59.0625 111.73 59.0625 109.59C59.0625 107.41 59.5938 105.734 60.6562 104.562C61.7266 103.391 63.2695 102.805 65.2852 102.805C66.6523 102.805 67.8828 103.059 68.9766 103.566L68.1445 105.781C66.9805 105.328 66.0195 105.102 65.2617 105.102C63.0195 105.102 61.8984 106.59 61.8984 109.566C61.8984 111.02 62.1758 112.113 62.7305 112.848C63.293 113.574 64.1133 113.938 65.1914 113.938C66.418 113.938 67.5781 113.633 68.6719 113.023V115.426C68.1797 115.715 67.6523 115.922 67.0898 116.047C66.5352 116.172 65.8594 116.234 65.0625 116.234ZM76.5469 114.008C77.2188 114.008 77.8906 113.902 78.5625 113.691V115.766C78.2578 115.898 77.8633 116.008 77.3789 116.094C76.9023 116.188 76.4062 116.234 75.8906 116.234C73.2812 116.234 71.9766 114.859 71.9766 112.109V105.125H70.207V103.906L72.1055 102.898L73.043 100.156H74.7422V103.039H78.4336V105.125H74.7422V112.062C74.7422 112.727 74.9062 113.219 75.2344 113.539C75.5703 113.852 76.0078 114.008 76.5469 114.008ZM83.918 116H81.1641V103.039H83.918V116ZM81 99.6055C81 99.1133 81.1328 98.7344 81.3984 98.4688C81.6719 98.2031 82.0586 98.0703 82.5586 98.0703C83.043 98.0703 83.418 98.2031 83.6836 98.4688C83.957 98.7344 84.0938 99.1133 84.0938 99.6055C84.0938 100.074 83.957 100.445 83.6836 100.719C83.418 100.984 83.043 101.117 82.5586 101.117C82.0586 101.117 81.6719 100.984 81.3984 100.719C81.1328 100.445 81 100.074 81 99.6055ZM90.8203 116L85.8984 103.039H88.8047L91.4414 110.574C91.8945 111.84 92.168 112.863 92.2617 113.645H92.3555C92.4258 113.082 92.6992 112.059 93.1758 110.574L95.8125 103.039H98.7422L93.7969 116H90.8203ZM106.371 116.234C104.355 116.234 102.777 115.648 101.637 114.477C100.504 113.297 99.9375 111.676 99.9375 109.613C99.9375 107.496 100.465 105.832 101.52 104.621C102.574 103.41 104.023 102.805 105.867 102.805C107.578 102.805 108.93 103.324 109.922 104.363C110.914 105.402 111.41 106.832 111.41 108.652V110.141H102.773C102.812 111.398 103.152 112.367 103.793 113.047C104.434 113.719 105.336 114.055 106.5 114.055C107.266 114.055 107.977 113.984 108.633 113.844C109.297 113.695 110.008 113.453 110.766 113.117V115.355C110.094 115.676 109.414 115.902 108.727 116.035C108.039 116.168 107.254 116.234 106.371 116.234ZM105.867 104.891C104.992 104.891 104.289 105.168 103.758 105.723C103.234 106.277 102.922 107.086 102.82 108.148H108.703C108.688 107.078 108.43 106.27 107.93 105.723C107.43 105.168 106.742 104.891 105.867 104.891Z" fill="white"/>
<path d="M258.548 107H248.121V78.4518C248.121 77.6644 248.132 76.697 248.155 75.5497C248.177 74.3799 248.211 73.1876 248.256 71.9728C248.301 70.7354 248.346 69.6219 248.391 68.632C248.144 68.9245 247.637 69.4306 246.872 70.1505C246.13 70.8479 245.433 71.4778 244.78 72.0402L239.111 76.5958L234.083 70.3193L249.977 57.6649H258.548V107ZM306.534 82.3325C306.534 86.3144 306.219 89.8688 305.589 92.9959C304.981 96.1229 303.991 98.7775 302.619 100.96C301.269 103.142 299.492 104.807 297.287 105.954C295.083 107.101 292.406 107.675 289.256 107.675C285.297 107.675 282.046 106.674 279.504 104.672C276.962 102.647 275.083 99.7448 273.868 95.9654C272.654 92.1635 272.046 87.6192 272.046 82.3325C272.046 77.0008 272.597 72.4452 273.7 68.6658C274.825 64.8638 276.647 61.9505 279.166 59.9258C281.686 57.9011 285.049 56.8888 289.256 56.8888C293.193 56.8888 296.433 57.9011 298.975 59.9258C301.539 61.928 303.44 64.8301 304.678 68.632C305.915 72.4114 306.534 76.9783 306.534 82.3325ZM282.406 82.3325C282.406 86.0894 282.608 89.2277 283.013 91.7473C283.441 94.2444 284.149 96.1229 285.139 97.3827C286.129 98.6425 287.501 99.2724 289.256 99.2724C290.988 99.2724 292.349 98.6538 293.339 97.4164C294.352 96.1566 295.071 94.2782 295.499 91.781C295.926 89.2614 296.14 86.1119 296.14 82.3325C296.14 78.5755 295.926 75.4372 295.499 72.9176C295.071 70.398 294.352 68.5083 293.339 67.2485C292.349 65.9662 290.988 65.325 289.256 65.325C287.501 65.325 286.129 65.9662 285.139 67.2485C284.149 68.5083 283.441 70.398 283.013 72.9176C282.608 75.4372 282.406 78.5755 282.406 82.3325Z" fill="white"/>
<path d="M53.8746 62.0522C57.8228 62.0522 60.8014 59.031 60.8014 55.0261C60.8014 51.0212 57.8228 48 53.8746 48C49.9263 48 46.9477 51.0212 46.9477 55.0261C46.9477 59.031 49.9263 62.0522 53.8746 62.0522ZM55.8536 63.9553H51.8955C46.4391 63.9553 42 68.458 42 73.9925V76H65.7491V73.9925C65.7491 68.458 61.31 63.9553 55.8536 63.9553ZM78.2055 54.5042L69.6954 63.1202L67.1384 60.5265L64.34 63.3651L69.6954 68.7932L81 57.3467L78.2055 54.5042Z" fill="white"/>
</svg>
