<svg width="377" height="163" viewBox="0 0 377 163" fill="none" xmlns="http://www.w3.org/2000/svg">
<rect width="377" height="163" rx="14" fill="#303030"/>
<path d="M43.0625 106.836H45.0078C46.3125 106.836 47.2578 106.594 47.8438 106.109C48.4297 105.625 48.7227 104.906 48.7227 103.953C48.7227 102.984 48.4062 102.289 47.7734 101.867C47.1406 101.445 46.1875 101.234 44.9141 101.234H43.0625V106.836ZM43.0625 109.156V116H40.2617V98.8672H45.1016C47.3125 98.8672 48.9492 99.2812 50.0117 100.109C51.0742 100.938 51.6055 102.188 51.6055 103.859C51.6055 105.992 50.4961 107.512 48.2773 108.418L53.1172 116H49.9297L45.8281 109.156H43.0625ZM60.9805 116.234C58.9648 116.234 57.3867 115.648 56.2461 114.477C55.1133 113.297 54.5469 111.676 54.5469 109.613C54.5469 107.496 55.0742 105.832 56.1289 104.621C57.1836 103.41 58.6328 102.805 60.4766 102.805C62.1875 102.805 63.5391 103.324 64.5312 104.363C65.5234 105.402 66.0195 106.832 66.0195 108.652V110.141H57.3828C57.4219 111.398 57.7617 112.367 58.4023 113.047C59.043 113.719 59.9453 114.055 61.1094 114.055C61.875 114.055 62.5859 113.984 63.2422 113.844C63.9062 113.695 64.6172 113.453 65.375 113.117V115.355C64.7031 115.676 64.0234 115.902 63.3359 116.035C62.6484 116.168 61.8633 116.234 60.9805 116.234ZM60.4766 104.891C59.6016 104.891 58.8984 105.168 58.3672 105.723C57.8438 106.277 57.5312 107.086 57.4297 108.148H63.3125C63.2969 107.078 63.0391 106.27 62.5391 105.723C62.0391 105.168 61.3516 104.891 60.4766 104.891ZM72.1016 116L67.1797 103.039H70.0859L72.7227 110.574C73.1758 111.84 73.4492 112.863 73.543 113.645H73.6367C73.707 113.082 73.9805 112.059 74.457 110.574L77.0938 103.039H80.0234L75.0781 116H72.1016ZM84.7461 116H81.9922V103.039H84.7461V116ZM81.8281 99.6055C81.8281 99.1133 81.9609 98.7344 82.2266 98.4688C82.5 98.2031 82.8867 98.0703 83.3867 98.0703C83.8711 98.0703 84.2461 98.2031 84.5117 98.4688C84.7852 98.7344 84.9219 99.1133 84.9219 99.6055C84.9219 100.074 84.7852 100.445 84.5117 100.719C84.2461 100.984 83.8711 101.117 83.3867 101.117C82.8867 101.117 82.5 100.984 82.2266 100.719C81.9609 100.445 81.8281 100.074 81.8281 99.6055ZM94.3555 116.234C92.3398 116.234 90.7617 115.648 89.6211 114.477C88.4883 113.297 87.9219 111.676 87.9219 109.613C87.9219 107.496 88.4492 105.832 89.5039 104.621C90.5586 103.41 92.0078 102.805 93.8516 102.805C95.5625 102.805 96.9141 103.324 97.9062 104.363C98.8984 105.402 99.3945 106.832 99.3945 108.652V110.141H90.7578C90.7969 111.398 91.1367 112.367 91.7773 113.047C92.418 113.719 93.3203 114.055 94.4844 114.055C95.25 114.055 95.9609 113.984 96.6172 113.844C97.2812 113.695 97.9922 113.453 98.75 113.117V115.355C98.0781 115.676 97.3984 115.902 96.7109 116.035C96.0234 116.168 95.2383 116.234 94.3555 116.234ZM93.8516 104.891C92.9766 104.891 92.2734 105.168 91.7422 105.723C91.2188 106.277 90.9062 107.086 90.8047 108.148H96.6875C96.6719 107.078 96.4141 106.27 95.9141 105.723C95.4141 105.168 94.7266 104.891 93.8516 104.891ZM113.152 116L111.477 109.953C111.273 109.312 110.906 107.824 110.375 105.488H110.27C109.816 107.598 109.457 109.094 109.191 109.977L107.469 116H104.422L100.789 103.039H103.602L105.254 109.426C105.629 111.004 105.895 112.355 106.051 113.48H106.121C106.199 112.91 106.316 112.258 106.473 111.523C106.637 110.781 106.777 110.227 106.895 109.859L108.863 103.039H111.887L113.797 109.859C113.914 110.242 114.059 110.828 114.23 111.617C114.41 112.406 114.516 113.02 114.547 113.457H114.641C114.758 112.496 115.031 111.152 115.461 109.426L117.137 103.039H119.902L116.246 116H113.152Z" fill="white"/>
<path d="M302.548 107H292.121V78.4518C292.121 77.6644 292.132 76.697 292.155 75.5497C292.177 74.3799 292.211 73.1876 292.256 71.9728C292.301 70.7354 292.346 69.6219 292.391 68.632C292.144 68.9245 291.637 69.4306 290.872 70.1505C290.13 70.8479 289.433 71.4778 288.78 72.0402L283.111 76.5958L278.083 70.3193L293.977 57.6649H302.548V107Z" fill="white"/>
<path d="M53.7666 68.8963C57.3464 68.8963 60.0471 66.1957 60.0471 62.6158C60.0471 59.0359 57.3464 56.3353 53.7666 56.3353C50.1867 56.3353 47.4861 59.0359 47.4861 62.6158C47.4861 66.1957 50.1867 68.8963 53.7666 68.8963ZM55.561 70.5974H51.9721C47.0249 70.5974 43 74.6223 43 79.5696V81.364H64.5331V79.5696C64.5331 74.6223 60.5082 70.5974 55.561 70.5974ZM72.364 52L69.8267 54.5373C72.1971 56.9113 73.5053 60.0659 73.5053 63.4197C73.5053 66.7735 72.1971 69.9281 69.8267 72.3021L72.364 74.8395C75.4145 71.7871 77.0941 67.7317 77.0941 63.4197C77.0941 59.1077 75.4145 55.0523 72.364 52Z" fill="white"/>
<path d="M67.2873 57.0742L64.75 59.6151C65.7674 60.629 66.3273 61.9802 66.3273 63.4193C66.3273 64.8584 65.7674 66.2096 64.75 67.2235L67.2873 69.7644C68.9813 68.0705 69.9162 65.8185 69.9162 63.4193C69.9162 61.0202 68.9813 58.7682 67.2873 57.0742Z" fill="white"/>
</svg>
