<svg width="377" height="163" viewBox="0 0 377 163" fill="none" xmlns="http://www.w3.org/2000/svg">
<rect width="377" height="163" rx="14" fill="#303030"/>
<path d="M44.25 116V98.8672H47.0625V116H44.25ZM58.0664 102.781C59.5273 102.781 60.6641 103.16 61.4766 103.918C62.2969 104.668 62.707 105.875 62.707 107.539V116H59.9531V108.055C59.9531 107.047 59.7461 106.293 59.332 105.793C58.918 105.285 58.2773 105.031 57.4102 105.031C56.1523 105.031 55.2773 105.418 54.7852 106.191C54.3008 106.965 54.0586 108.086 54.0586 109.555V116H51.3047V103.027H53.4492L53.8359 104.785H53.9883C54.2695 104.332 54.6172 103.961 55.0312 103.672C55.4531 103.375 55.9219 103.152 56.4375 103.004C56.9609 102.855 57.5039 102.781 58.0664 102.781ZM71.6484 102.781C73.2891 102.781 74.5273 103.145 75.3633 103.871C76.207 104.598 76.6289 105.73 76.6289 107.27V116H74.6719L74.1445 114.16H74.0508C73.6836 114.629 73.3047 115.016 72.9141 115.32C72.5234 115.625 72.0703 115.852 71.5547 116C71.0469 116.156 70.4258 116.234 69.6914 116.234C68.918 116.234 68.2266 116.094 67.6172 115.812C67.0078 115.523 66.5273 115.086 66.1758 114.5C65.8242 113.914 65.6484 113.172 65.6484 112.273C65.6484 110.938 66.1445 109.934 67.1367 109.262C68.1367 108.59 69.6445 108.219 71.6602 108.148L73.9102 108.066V107.387C73.9102 106.488 73.6992 105.848 73.2773 105.465C72.8633 105.082 72.2773 104.891 71.5195 104.891C70.8711 104.891 70.2422 104.984 69.6328 105.172C69.0234 105.359 68.4297 105.59 67.8516 105.863L66.9609 103.918C67.5938 103.582 68.3125 103.309 69.1172 103.098C69.9297 102.887 70.7734 102.781 71.6484 102.781ZM73.8984 109.801L72.2227 109.859C70.8477 109.906 69.8828 110.141 69.3281 110.562C68.7734 110.984 68.4961 111.562 68.4961 112.297C68.4961 112.938 68.6875 113.406 69.0703 113.703C69.4531 113.992 69.957 114.137 70.582 114.137C71.5352 114.137 72.3242 113.867 72.9492 113.328C73.582 112.781 73.8984 111.98 73.8984 110.926V109.801ZM85.7109 116.234C84.4844 116.234 83.4219 115.996 82.5234 115.52C81.625 115.043 80.9336 114.312 80.4492 113.328C79.9648 112.344 79.7227 111.094 79.7227 109.578C79.7227 108 79.9883 106.711 80.5195 105.711C81.0508 104.711 81.7852 103.973 82.7227 103.496C83.668 103.02 84.75 102.781 85.9688 102.781C86.7422 102.781 87.4414 102.859 88.0664 103.016C88.6992 103.164 89.2344 103.348 89.6719 103.566L88.8516 105.77C88.375 105.574 87.8867 105.41 87.3867 105.277C86.8867 105.145 86.4062 105.078 85.9453 105.078C85.1875 105.078 84.5547 105.246 84.0469 105.582C83.5469 105.918 83.1719 106.418 82.9219 107.082C82.6797 107.746 82.5586 108.57 82.5586 109.555C82.5586 110.508 82.6836 111.312 82.9336 111.969C83.1836 112.617 83.5547 113.109 84.0469 113.445C84.5391 113.773 85.1445 113.938 85.8633 113.938C86.5742 113.938 87.2109 113.852 87.7734 113.68C88.3359 113.508 88.8672 113.285 89.3672 113.012V115.402C88.875 115.684 88.3477 115.891 87.7852 116.023C87.2227 116.164 86.5312 116.234 85.7109 116.234ZM97.2422 114.008C97.6016 114.008 97.957 113.977 98.3086 113.914C98.6602 113.844 98.9805 113.762 99.2695 113.668V115.754C98.9648 115.887 98.5703 116 98.0859 116.094C97.6016 116.188 97.0977 116.234 96.5742 116.234C95.8398 116.234 95.1797 116.113 94.5938 115.871C94.0078 115.621 93.543 115.195 93.1992 114.594C92.8555 113.992 92.6836 113.16 92.6836 112.098V105.125H90.9141V103.895L92.8125 102.922L93.7148 100.145H95.4492V103.027H99.1641V105.125H95.4492V112.062C95.4492 112.719 95.6133 113.207 95.9414 113.527C96.2695 113.848 96.7031 114.008 97.2422 114.008ZM104.66 103.027V116H101.906V103.027H104.66ZM103.301 98.0586C103.723 98.0586 104.086 98.1719 104.391 98.3984C104.703 98.625 104.859 99.0156 104.859 99.5703C104.859 100.117 104.703 100.508 104.391 100.742C104.086 100.969 103.723 101.082 103.301 101.082C102.863 101.082 102.492 100.969 102.188 100.742C101.891 100.508 101.742 100.117 101.742 99.5703C101.742 99.0156 101.891 98.625 102.188 98.3984C102.492 98.1719 102.863 98.0586 103.301 98.0586ZM111.574 116L106.641 103.027H109.559L112.23 110.645C112.402 111.129 112.559 111.652 112.699 112.215C112.84 112.777 112.938 113.25 112.992 113.633H113.086C113.141 113.234 113.246 112.758 113.402 112.203C113.559 111.641 113.719 111.121 113.883 110.645L116.555 103.027H119.461L114.527 116H111.574ZM126.598 102.781C127.754 102.781 128.746 103.02 129.574 103.496C130.402 103.973 131.039 104.648 131.484 105.523C131.93 106.398 132.152 107.445 132.152 108.664V110.141H123.492C123.523 111.398 123.859 112.367 124.5 113.047C125.148 113.727 126.055 114.066 127.219 114.066C128.047 114.066 128.789 113.988 129.445 113.832C130.109 113.668 130.793 113.43 131.496 113.117V115.355C130.848 115.66 130.188 115.883 129.516 116.023C128.844 116.164 128.039 116.234 127.102 116.234C125.828 116.234 124.707 115.988 123.738 115.496C122.777 114.996 122.023 114.254 121.477 113.27C120.938 112.285 120.668 111.062 120.668 109.602C120.668 108.148 120.914 106.914 121.406 105.898C121.898 104.883 122.59 104.109 123.48 103.578C124.371 103.047 125.41 102.781 126.598 102.781ZM126.598 104.855C125.73 104.855 125.027 105.137 124.488 105.699C123.957 106.262 123.645 107.086 123.551 108.172H129.457C129.449 107.523 129.34 106.949 129.129 106.449C128.926 105.949 128.613 105.559 128.191 105.277C127.777 104.996 127.246 104.855 126.598 104.855Z" fill="white"/>
<path d="M308.775 57.0238C311.609 57.0238 314.219 57.4624 316.603 58.3398C319.01 59.2172 320.934 60.5445 322.374 62.3217C323.814 64.0764 324.533 66.2811 324.533 68.9357C324.533 70.9154 324.14 72.6477 323.352 74.1324C322.587 75.6172 321.541 76.922 320.214 78.0468C318.887 79.1492 317.379 80.1165 315.692 80.9489C317.447 81.8713 319.112 82.9511 320.686 84.1884C322.261 85.4032 323.544 86.8318 324.533 88.474C325.546 90.1163 326.052 92.0285 326.052 94.2107C326.052 96.9553 325.321 99.3399 323.859 101.365C322.396 103.367 320.372 104.919 317.784 106.021C315.197 107.124 312.194 107.675 308.775 107.675C305.085 107.675 301.947 107.146 299.36 106.089C296.773 105.032 294.804 103.524 293.454 101.567C292.105 99.5874 291.43 97.2252 291.43 94.4806C291.43 92.231 291.846 90.2738 292.678 88.609C293.533 86.9443 294.68 85.5157 296.12 84.3234C297.56 83.1086 299.146 82.0737 300.878 81.2189C299.416 80.2965 298.077 79.2504 296.863 78.0806C295.67 76.9108 294.714 75.5722 293.994 74.0649C293.297 72.5577 292.948 70.8254 292.948 68.8682C292.948 66.2586 293.679 64.0764 295.142 62.3217C296.626 60.567 298.572 59.2509 300.979 58.3735C303.387 57.4737 305.985 57.0238 308.775 57.0238ZM301.081 93.8732C301.081 95.6505 301.711 97.124 302.97 98.2938C304.253 99.4411 306.142 100.015 308.64 100.015C311.227 100.015 313.161 99.4636 314.444 98.3613C315.726 97.2365 316.367 95.7629 316.367 93.9407C316.367 92.6809 315.996 91.5786 315.254 90.6337C314.534 89.6888 313.623 88.8452 312.52 88.1028C311.418 87.338 310.304 86.6293 309.179 85.9769L308.268 85.5045C306.829 86.1569 305.569 86.888 304.489 87.6979C303.432 88.5078 302.599 89.4189 301.992 90.4312C301.384 91.4436 301.081 92.5909 301.081 93.8732ZM308.707 64.6501C306.997 64.6501 305.58 65.0888 304.455 65.9662C303.33 66.8435 302.768 68.0808 302.768 69.6781C302.768 70.8029 303.038 71.7928 303.578 72.6477C304.14 73.48 304.871 74.2112 305.771 74.8411C306.694 75.471 307.695 76.0559 308.775 76.5958C309.809 76.1009 310.777 75.5497 311.677 74.9423C312.576 74.3349 313.308 73.6038 313.87 72.7489C314.432 71.894 314.714 70.8704 314.714 69.6781C314.714 68.0808 314.14 66.8435 312.993 65.9662C311.868 65.0888 310.439 64.6501 308.707 64.6501Z" fill="white"/>
<path d="M71 59.9403H87V63.9553H71V59.9403ZM52 55.0261C52 59.031 55.01 62.0522 59 62.0522C62.99 62.0522 66 59.031 66 55.0261C66 51.0212 62.99 48 59 48C55.01 48 52 51.0212 52 55.0261ZM51 76H71V73.9925C71 68.458 66.514 63.9553 61 63.9553H57C51.486 63.9553 47 68.458 47 73.9925V76H51Z" fill="white"/>
</svg>
