<svg width="377" height="163" viewBox="0 0 377 163" fill="none" xmlns="http://www.w3.org/2000/svg">
<rect width="377" height="163" rx="14" fill="#303030"/>
<path d="M47.0625 106.836H49.0078C50.3125 106.836 51.2578 106.594 51.8438 106.109C52.4297 105.625 52.7227 104.906 52.7227 103.953C52.7227 102.984 52.4062 102.289 51.7734 101.867C51.1406 101.445 50.1875 101.234 48.9141 101.234H47.0625V106.836ZM47.0625 109.156V116H44.2617V98.8672H49.1016C51.3125 98.8672 52.9492 99.2812 54.0117 100.109C55.0742 100.938 55.6055 102.188 55.6055 103.859C55.6055 105.992 54.4961 107.512 52.2773 108.418L57.1172 116H53.9297L49.8281 109.156H47.0625ZM64.9805 116.234C62.9648 116.234 61.3867 115.648 60.2461 114.477C59.1133 113.297 58.5469 111.676 58.5469 109.613C58.5469 107.496 59.0742 105.832 60.1289 104.621C61.1836 103.41 62.6328 102.805 64.4766 102.805C66.1875 102.805 67.5391 103.324 68.5312 104.363C69.5234 105.402 70.0195 106.832 70.0195 108.652V110.141H61.3828C61.4219 111.398 61.7617 112.367 62.4023 113.047C63.043 113.719 63.9453 114.055 65.1094 114.055C65.875 114.055 66.5859 113.984 67.2422 113.844C67.9062 113.695 68.6172 113.453 69.375 113.117V115.355C68.7031 115.676 68.0234 115.902 67.3359 116.035C66.6484 116.168 65.8633 116.234 64.9805 116.234ZM64.4766 104.891C63.6016 104.891 62.8984 105.168 62.3672 105.723C61.8438 106.277 61.5312 107.086 61.4297 108.148H67.3125C67.2969 107.078 67.0391 106.27 66.5391 105.723C66.0391 105.168 65.3516 104.891 64.4766 104.891ZM76.1016 116L71.1797 103.039H74.0859L76.7227 110.574C77.1758 111.84 77.4492 112.863 77.543 113.645H77.6367C77.707 113.082 77.9805 112.059 78.457 110.574L81.0938 103.039H84.0234L79.0781 116H76.1016ZM97.4883 109.496C97.4883 111.613 96.9453 113.266 95.8594 114.453C94.7734 115.641 93.2617 116.234 91.3242 116.234C90.1133 116.234 89.043 115.961 88.1133 115.414C87.1836 114.867 86.4688 114.082 85.9688 113.059C85.4688 112.035 85.2188 110.848 85.2188 109.496C85.2188 107.395 85.7578 105.754 86.8359 104.574C87.9141 103.395 89.4336 102.805 91.3945 102.805C93.2695 102.805 94.7539 103.41 95.8477 104.621C96.9414 105.824 97.4883 107.449 97.4883 109.496ZM88.0547 109.496C88.0547 112.488 89.1602 113.984 91.3711 113.984C93.5586 113.984 94.6523 112.488 94.6523 109.496C94.6523 106.535 93.5508 105.055 91.3477 105.055C90.1914 105.055 89.3516 105.438 88.8281 106.203C88.3125 106.969 88.0547 108.066 88.0547 109.496ZM103.324 109.156L104.883 107.211L108.797 103.039H111.973L106.758 108.605L112.301 116H109.066L104.906 110.316L103.395 111.559V116H100.664V97.7656H103.395V106.66L103.254 109.156H103.324ZM120.059 116.234C118.043 116.234 116.465 115.648 115.324 114.477C114.191 113.297 113.625 111.676 113.625 109.613C113.625 107.496 114.152 105.832 115.207 104.621C116.262 103.41 117.711 102.805 119.555 102.805C121.266 102.805 122.617 103.324 123.609 104.363C124.602 105.402 125.098 106.832 125.098 108.652V110.141H116.461C116.5 111.398 116.84 112.367 117.48 113.047C118.121 113.719 119.023 114.055 120.188 114.055C120.953 114.055 121.664 113.984 122.32 113.844C122.984 113.695 123.695 113.453 124.453 113.117V115.355C123.781 115.676 123.102 115.902 122.414 116.035C121.727 116.168 120.941 116.234 120.059 116.234ZM119.555 104.891C118.68 104.891 117.977 105.168 117.445 105.723C116.922 106.277 116.609 107.086 116.508 108.148H122.391C122.375 107.078 122.117 106.27 121.617 105.723C121.117 105.168 120.43 104.891 119.555 104.891ZM132.598 116.234C130.98 116.234 129.719 115.648 128.812 114.477C127.906 113.305 127.453 111.66 127.453 109.543C127.453 107.418 127.91 105.766 128.824 104.586C129.746 103.398 131.02 102.805 132.645 102.805C134.348 102.805 135.645 103.434 136.535 104.691H136.676C136.543 103.762 136.477 103.027 136.477 102.488V97.7656H139.242V116H137.086L136.605 114.301H136.477C135.594 115.59 134.301 116.234 132.598 116.234ZM133.336 114.008C134.469 114.008 135.293 113.691 135.809 113.059C136.324 112.418 136.59 111.383 136.605 109.953V109.566C136.605 107.934 136.34 106.773 135.809 106.086C135.277 105.398 134.445 105.055 133.312 105.055C132.344 105.055 131.598 105.449 131.074 106.238C130.551 107.02 130.289 108.137 130.289 109.59C130.289 111.027 130.543 112.125 131.051 112.883C131.559 113.633 132.32 114.008 133.336 114.008Z" fill="white"/>
<path d="M326.254 107H291.767V99.7448L304.151 87.2255C306.649 84.6609 308.651 82.5237 310.158 80.8139C311.688 79.0817 312.79 77.5069 313.465 76.0896C314.162 74.6724 314.511 73.1538 314.511 71.5341C314.511 69.5769 313.96 68.1146 312.858 67.1472C311.778 66.1574 310.327 65.6625 308.505 65.6625C306.592 65.6625 304.736 66.1011 302.937 66.9785C301.137 67.8559 299.258 69.1044 297.301 70.7242L291.632 64.009C293.049 62.7941 294.545 61.6468 296.12 60.567C297.717 59.4871 299.562 58.621 301.654 57.9686C303.769 57.2937 306.3 56.9563 309.247 56.9563C312.486 56.9563 315.265 57.5412 317.582 58.711C319.922 59.8808 321.721 61.4781 322.981 63.5028C324.241 65.505 324.871 67.7771 324.871 70.3193C324.871 73.0413 324.331 75.5272 323.251 77.7769C322.171 80.0265 320.597 82.2537 318.527 84.4584C316.48 86.6631 314.005 89.1039 311.103 91.781L304.759 97.7539V98.2263H326.254V107Z" fill="white"/>
<path d="M55.4829 66.5541C59.6334 66.5541 62.7645 63.4249 62.7645 59.277C62.7645 55.1291 59.6334 52 55.4829 52C51.3323 52 48.2012 55.1291 48.2012 59.277C48.2012 63.4249 51.3323 66.5541 55.4829 66.5541ZM57.5634 68.5251H53.4024C47.6665 68.5251 43 73.1886 43 78.9208V81H67.9657V78.9208C67.9657 73.1886 63.2992 68.5251 57.5634 68.5251ZM81.0582 58.7385L76.2877 63.506L71.5171 58.7385L68.5753 61.6784L73.3438 66.4439L68.5732 71.2114L71.515 74.1513L76.2856 69.3838L81.0582 74.1534L84 71.2134L79.2295 66.4459L84 61.6784L81.0582 58.7385Z" fill="white"/>
</svg>
