<svg width="244" height="223" viewBox="0 0 244 223" fill="none" xmlns="http://www.w3.org/2000/svg">
<rect x="30" width="112.7" height="149.73" rx="17.71" fill="#FDFDFD"/>
<rect x="68.6406" y="136.852" width="38.64" height="6.44" rx="3.22" fill="#CACACA"/>
<path d="M135.467 69.9541V149.729C126.252 149.187 122.573 149.729 118.555 149.729C118.556 148.924 118.555 148.924 118.562 148.133V69.9541C118.562 59.0065 128.759 54.6593 133.857 53.8541C138.956 53.0464 142.712 53.1315 142.712 53.1315V57.9545V69.9541H135.467Z" fill="#CACACA"/>
<rect x="121.77" y="56.3516" width="69.23" height="119.14" rx="17.71" fill="#FDFDFD"/>
<circle cx="158.799" cy="164.221" r="6.44" fill="#CACACA"/>
<path d="M103.544 68.31L100.808 60.102C100.411 58.907 99.6477 57.8674 98.6262 57.131C97.6048 56.3946 96.3772 55.9989 95.118 56H76.882C75.6228 55.9989 74.3952 56.3946 73.3738 57.131C72.3523 57.8674 71.5889 58.907 71.192 60.102L68.456 68.31C67.7284 68.6144 67.1071 69.1271 66.6701 69.7837C66.2331 70.4402 66 71.2113 66 72V82C66 83.476 66.808 84.752 68 85.446V90C68 90.5304 68.2107 91.0391 68.5858 91.4142C68.9609 91.7893 69.4696 92 70 92H72C72.5304 92 73.0391 91.7893 73.4142 91.4142C73.7893 91.0391 74 90.5304 74 90V86H98V90C98 90.5304 98.2107 91.0391 98.5858 91.4142C98.9609 91.7893 99.4696 92 100 92H102C102.53 92 103.039 91.7893 103.414 91.4142C103.789 91.0391 104 90.5304 104 90V85.446C104.607 85.098 105.111 84.5963 105.462 83.9913C105.813 83.3863 105.999 82.6995 106 82V72C106 71.2113 105.767 70.4402 105.33 69.7837C104.893 69.1271 104.272 68.6144 103.544 68.31ZM76.882 60H95.116C95.978 60 96.742 60.548 97.014 61.368L99.226 68H72.774L74.984 61.368C75.1167 60.9696 75.3714 60.6231 75.7121 60.3775C76.0528 60.132 76.4621 59.9999 76.882 60V60ZM73 80C72.6059 79.9999 72.2157 79.9221 71.8516 79.7712C71.4876 79.6202 71.1568 79.3991 70.8783 79.1203C70.5997 78.8416 70.3787 78.5107 70.2281 78.1465C70.0774 77.7824 69.9999 77.3921 70 76.998C70.0001 76.6039 70.0779 76.2137 70.2288 75.8496C70.3798 75.4856 70.6009 75.1548 70.8797 74.8763C71.1584 74.5977 71.4893 74.3768 71.8535 74.2261C72.2176 74.0754 72.6079 73.9979 73.002 73.998C73.7979 73.9983 74.5611 74.3147 75.1237 74.8777C75.6863 75.4407 76.0023 76.2041 76.002 77C76.0017 77.7959 75.6853 78.5591 75.1223 79.1217C74.5593 79.6843 73.7959 80.0003 73 80V80ZM99 80C98.6059 79.9999 98.2157 79.9221 97.8516 79.7712C97.4876 79.6202 97.1568 79.3991 96.8783 79.1203C96.5997 78.8416 96.3787 78.5107 96.2281 78.1465C96.0774 77.7824 95.9999 77.3921 96 76.998C96.0001 76.6039 96.0779 76.2137 96.2288 75.8496C96.3798 75.4856 96.6009 75.1548 96.8797 74.8763C97.1584 74.5977 97.4893 74.3768 97.8535 74.2261C98.2176 74.0754 98.6079 73.9979 99.002 73.998C99.7979 73.9983 100.561 74.3147 101.124 74.8777C101.686 75.4407 102.002 76.2041 102.002 77C102.002 77.7959 101.685 78.5591 101.122 79.1217C100.559 79.6843 99.7959 80.0003 99 80V80Z" fill="#858585"/>
<path d="M5.31831 199.551C7.64226 199.568 9.40666 200.167 10.6115 201.351C11.8164 202.534 12.4114 204.198 12.3964 206.343C12.3815 208.488 11.7634 210.144 10.5422 211.31C9.32095 212.477 7.54836 213.052 5.22441 213.036L1.68103 213.011L1.77492 199.527L5.31831 199.551ZM5.22681 212.691C7.44861 212.706 9.13164 212.156 10.2759 211.04C11.4202 209.925 11.9993 208.358 12.0134 206.34C12.0274 204.323 11.4701 202.748 10.3415 201.617C9.21291 200.485 7.5377 199.912 5.31591 199.896L2.15559 199.874L2.0665 212.669L5.22681 212.691ZM49.8231 209.63L43.1577 209.584L41.7145 213.29L41.274 213.287L46.3641 200.24L46.7472 200.242L51.636 213.359L51.1955 213.356L49.8231 209.63ZM49.6915 209.284L46.5514 200.854L43.2942 209.24L49.6915 209.284ZM88.1135 200.128L88.1111 200.473L84.1846 200.445L84.0931 213.585L83.71 213.582L83.8015 200.443L79.8751 200.415L79.8775 200.071L88.1135 200.128ZM124.719 210.152L118.054 210.105L116.61 213.811L116.17 213.808L121.26 200.761L121.643 200.764L126.532 213.88L126.091 213.877L124.719 210.152ZM124.587 209.806L121.447 201.375L118.19 209.761L124.587 209.806ZM163.009 200.65L163.007 200.994L159.08 200.967L158.989 214.106L158.606 214.104L158.697 200.964L154.771 200.937L154.773 200.592L163.009 200.65ZM198.075 214.532C196.836 214.523 195.727 214.228 194.748 213.647C193.782 213.052 193.028 212.23 192.486 211.179C191.944 210.128 191.678 208.939 191.687 207.611C191.696 206.283 191.979 205.097 192.536 204.054C193.092 203.011 193.857 202.205 194.832 201.637C195.819 201.057 196.932 200.771 198.171 200.78C199.409 200.788 200.512 201.09 201.478 201.684C202.457 202.265 203.218 203.081 203.759 204.132C204.301 205.183 204.567 206.372 204.558 207.7C204.549 209.028 204.266 210.214 203.71 211.257C203.153 212.3 202.382 213.112 201.394 213.693C200.42 214.261 199.313 214.54 198.075 214.532ZM198.077 214.187C199.201 214.195 200.224 213.94 201.147 213.423C202.07 212.893 202.797 212.138 203.327 211.159C203.871 210.167 204.147 209.013 204.156 207.698C204.165 206.382 203.905 205.231 203.376 204.244C202.859 203.245 202.143 202.48 201.227 201.95C200.311 201.407 199.292 201.132 198.168 201.124C197.044 201.116 196.021 201.377 195.098 201.907C194.175 202.425 193.442 203.179 192.899 204.171C192.368 205.151 192.099 206.298 192.089 207.614C192.08 208.929 192.334 210.086 192.85 211.086C193.38 212.073 194.102 212.838 195.018 213.38C195.934 213.91 196.954 214.179 198.077 214.187ZM241.86 214.683L238.301 208.778L237.937 208.776L234.91 208.755L234.869 214.635L234.486 214.632L234.58 201.148L237.951 201.171C239.432 201.182 240.528 201.528 241.239 202.21C241.962 202.891 242.319 203.82 242.311 204.994C242.303 206.08 241.991 206.946 241.373 207.593C240.756 208.24 239.879 208.623 238.741 208.743L242.339 214.687L241.86 214.683ZM237.939 208.412C239.254 208.421 240.24 208.115 240.895 207.494C241.564 206.873 241.901 206.039 241.909 204.992C241.925 202.719 240.605 201.573 237.949 201.555L234.961 201.534L234.913 208.391L237.939 208.412Z" fill="white"/>
</svg>
