<svg width="163" height="57" viewBox="0 0 163 57" fill="none" xmlns="http://www.w3.org/2000/svg">
<path d="M43.2632 13.2632C43.2632 20.5756 49.2139 26.5263 56.5263 26.5263C63.8387 26.5263 69.7895 20.5756 69.7895 13.2632C69.7895 5.95074 63.8387 0 56.5263 0C49.2139 0 43.2632 5.95074 43.2632 13.2632ZM80.1053 56H83.0526V53.0526C83.0526 41.6787 73.7949 32.4211 62.4211 32.4211H50.6316C39.2547 32.4211 30 41.6787 30 53.0526V56H80.1053Z" fill="#303030"/>
<path d="M122.263 13.2632C122.263 20.5756 128.214 26.5263 135.526 26.5263C142.839 26.5263 148.789 20.5756 148.789 13.2632C148.789 5.95074 142.839 0 135.526 0C128.214 0 122.263 5.95074 122.263 13.2632ZM159.105 56H162.053V53.0526C162.053 41.6787 152.795 32.4211 141.421 32.4211H129.632C118.255 32.4211 109 41.6787 109 53.0526V56H159.105Z" fill="#303030"/>
<path d="M26.5789 0C23.6585 0 20.8036 0.866015 18.3754 2.48853C15.9471 4.11105 14.0545 6.4172 12.9369 9.11535C11.8193 11.8135 11.5268 14.7825 12.0966 17.6468C12.6663 20.5111 14.0727 23.1422 16.1378 25.2073C18.2028 27.2724 20.8339 28.6787 23.6982 29.2484C26.5626 29.8182 29.5315 29.5258 32.2297 28.4082C34.9278 27.2906 37.234 25.3979 38.8565 22.9697C40.479 20.5414 41.345 17.6865 41.345 14.7661C41.345 10.8499 39.7893 7.09406 37.0201 4.32489C34.251 1.55571 30.4952 0 26.5789 0ZM26.5789 23.6257C24.8267 23.6257 23.1138 23.1061 21.6568 22.1326C20.1998 21.1591 19.0643 19.7754 18.3937 18.1565C17.7231 16.5376 17.5477 14.7563 17.8895 13.0377C18.2314 11.319 19.0752 9.74041 20.3142 8.50136C21.5533 7.26232 23.1319 6.41852 24.8505 6.07667C26.5691 5.73482 28.3505 5.91027 29.9694 6.58083C31.5883 7.2514 32.972 8.38696 33.9455 9.84392C34.919 11.3009 35.4386 13.0138 35.4386 14.7661C35.4386 17.1158 34.5052 19.3693 32.8437 21.0308C31.1822 22.6923 28.9287 23.6257 26.5789 23.6257ZM53.1579 56.1111V53.1579C53.1579 47.6752 50.9799 42.4171 47.1031 38.5402C43.2262 34.6634 37.9681 32.4854 32.4854 32.4854H20.6725C15.1898 32.4854 9.93169 34.6634 6.05484 38.5402C2.17799 42.4171 0 47.6752 0 53.1579V56.1111H5.90643V53.1579C5.90643 49.2417 7.46214 45.4859 10.2313 42.7167C13.0005 39.9475 16.7563 38.3918 20.6725 38.3918H32.4854C36.4016 38.3918 40.1574 39.9475 42.9266 42.7167C45.6958 45.4859 47.2515 49.2417 47.2515 53.1579V56.1111H53.1579Z" fill="#303030"/>
<path d="M104.526 0C101.612 0 98.7624 0.8643 96.339 2.48361C93.9155 4.10291 92.0266 6.40449 90.9112 9.0973C89.7959 11.7901 89.504 14.7532 90.0726 17.6119C90.6413 20.4705 92.0448 23.0964 94.1058 25.1574C96.1668 27.2183 98.7926 28.6219 101.651 29.1905C104.51 29.7591 107.473 29.4673 110.166 28.3519C112.859 27.2365 115.16 25.3477 116.78 22.9242C118.399 20.5007 119.263 17.6515 119.263 14.7368C119.263 10.8284 117.711 7.08002 114.947 4.31632C112.183 1.55263 108.435 0 104.526 0ZM104.526 23.5789C102.778 23.5789 101.068 23.0604 99.6139 22.0888C98.1598 21.1172 97.0265 19.7363 96.3573 18.1206C95.688 16.5049 95.5129 14.727 95.8541 13.0118C96.1953 11.2966 97.0374 9.72112 98.274 8.48453C99.5106 7.24794 101.086 6.40581 102.801 6.06464C104.517 5.72346 106.294 5.89856 107.91 6.5678C109.526 7.23704 110.907 8.37035 111.878 9.82443C112.85 11.2785 113.368 12.988 113.368 14.7368C113.368 17.0819 112.437 19.3309 110.779 20.9892C109.12 22.6474 106.871 23.5789 104.526 23.5789ZM131.053 56V53.0526C131.053 47.5808 128.879 42.3331 125.01 38.4639C121.141 34.5947 115.893 32.4211 110.421 32.4211H98.6316C93.1597 32.4211 87.912 34.5947 84.0428 38.4639C80.1737 42.3331 78 47.5808 78 53.0526V56H83.8947V53.0526C83.8947 49.1442 85.4474 45.3958 88.2111 42.6321C90.9748 39.8684 94.7231 38.3158 98.6316 38.3158H110.421C114.33 38.3158 118.078 39.8684 120.842 42.6321C123.605 45.3958 125.158 49.1442 125.158 53.0526V56H131.053Z" fill="#303030"/>
</svg>
