<svg width="107" height="139" viewBox="0 0 107 139" fill="none" xmlns="http://www.w3.org/2000/svg">
<path d="M23.7812 83.0078H35.6701V96.8411H23.7812V83.0078Z" fill="white"/>
<path d="M95.1111 0H47.5556C44.4024 0 41.3784 1.45744 39.1488 4.05169C36.9192 6.64594 35.6667 10.1645 35.6667 13.8333V55.3333H11.8889C5.33217 55.3333 0 61.5376 0 69.1667V131.417C0 133.251 0.626288 135.01 1.74109 136.307C2.85589 137.605 4.36788 138.333 5.94444 138.333H101.056C102.632 138.333 104.144 137.605 105.259 136.307C106.374 135.01 107 133.251 107 131.417V13.8333C107 10.1645 105.747 6.64594 103.518 4.05169C101.288 1.45744 98.2642 0 95.1111 0ZM11.8889 124.5V69.1667H47.5556V124.5H11.8889ZM65.3889 41.5H53.5V27.6667H65.3889V41.5ZM89.1667 96.8333H77.2778V83H89.1667V96.8333ZM89.1667 69.1667H77.2778V55.3333H89.1667V69.1667ZM89.1667 41.5H77.2778V27.6667H89.1667V41.5Z" fill="white"/>
</svg>
